<svg id="illu-bledy-1" xmlns="http://www.w3.org/2000/svg" xmlns:xlink="http://www.w3.org/1999/xlink" width="542" height="223" viewBox="0 0 542 223">
  <defs>
    <clipPath id="clip-path">
      <rect id="Rectangle_2159" data-name="Rectangle 2159" width="542" height="223" fill="#fff" stroke="#707070" stroke-width="1"/>
    </clipPath>
  </defs>
  <g id="Mask_Group_1" data-name="Mask Group 1" clip-path="url(#clip-path)">
    <path id="Path_454" data-name="Path 454" d="M519-3.82C466.47,27,475.42,86.07,478.35,105.48l.09.62c5.6,37-7.94,68.62-37.15,86.86-26.54,16.56-61.66,18.61-81.72,4.75C346.36,188.58,341.31,174,345,155.53c8.24-41.27-2-76.41-26.7-91.7C295.67,49.82,265.66,55,236,78c-29.2,22.59-56,26.16-75.46,22.53a40.648,40.648,0,0,0,1-4.91c2.32-15.55-2-27.43-11.56-31.77a17.37,17.37,0,0,0-7.64-1.54,7.123,7.123,0,0,0-1.52.11c-.52.11-1,.12-1.52.22a24.79,24.79,0,0,0-14,8.62c-4.41,5.19-3.09,12.66,3.46,19.52a24.189,24.189,0,0,0,2.13,2,42.57,42.57,0,0,0,5,3.72,55,55,0,0,0,7.56,4.1h0c1,.45,2,.88,3.09,1.29s1.91.73,2.9,1.07c1.33.45,2.7.87,4.12,1.26-.35.77-.72,1.5-1.12,2.21a13.88,13.88,0,0,1-.8,1.36,13.4,13.4,0,0,1-.85,1.31c-4.24,6.16-10.63,10.67-18.76,13.13-.67.2-1.35.39-2,.57s-1.44.33-2.18.48h-.09l-1.39.25a53.94,53.94,0,0,1-18.18-.12h0a52.852,52.852,0,0,1-5.82-1.3h-.07c-.54-.15-1.08-.3-1.62-.48h0a54.85,54.85,0,0,1-22.5-13.31h0a49.36,49.36,0,0,1-8.93-12A49.17,49.17,0,0,0,56.49,80.8h0a47,47,0,0,0-20.12-9.21c-1.27-.26-2.57-.47-3.89-.65-9.65-1.25-20.23,0-30.58,3.2a7.91,7.91,0,0,1-3.84,1.63,29.49,29.49,0,0,1-2.41,6.29c12-5.09,24.77-7.35,36.15-5.87C46.32,78.08,57.61,85.9,64.46,98.8a54.43,54.43,0,0,0,11.83,15.14,58.6,58.6,0,0,0,14,9.32c.33.17.64.31,1,.47h0c.43.19.86.4,1.3.57q1.5.66,3,1.2a62.06,62.06,0,0,0,31.68,3.3c.87-.15,1.73-.31,2.57-.5,1.58-.35,3.1-.78,4.58-1.26.64-.2,1.26-.43,1.88-.66s1.19-.45,1.77-.71h0a38.93,38.93,0,0,0,16.28-12.47c.31-.41.62-.83.9-1.25s.58-.86.85-1.31a36.849,36.849,0,0,0,2.71-5.18c20.92,4.14,49.51.63,80.43-23.3,27.85-21.57,55.67-26.61,76.31-13.83,22.77,14.11,32.08,47.12,24.29,86.17-4.06,20.4,1.89,37.29,16.76,47.57,18.33,12.68,46.89,13.46,72.49,3.06a98.778,98.778,0,0,0,15.05-7.68c31.08-19.41,45.52-53,39.58-92.14l-.09-.63C480.49,84.2,472.24,29.77,521.69.74q24-14.055,47.92-9.3l-2.3-5.68C551.16-16.58,534.86-13.13,519-3.82ZM155.32,99.33a59.759,59.759,0,0,1-13.83-5.56h0a46,46,0,0,1-4.41-2.82,33,33,0,0,1-4.48-3.85,22,22,0,0,1-2.05-2.48c-1.95-2.72-3.88-6.78-1.19-9.93a21.18,21.18,0,0,1,8-6c.34-.13.66-.26,1-.36a11.189,11.189,0,0,1,1.65-.44,12.939,12.939,0,0,1,1.6-.25,12.13,12.13,0,0,1,6.18,1c7.28,3.3,10.46,13.09,8.53,26.17a37.909,37.909,0,0,1-1,4.52Z" transform="translate(0.35 7.949)" fill="#e1e1e1"/>
  </g>
</svg>
