<svg id="illu-bledy-2" xmlns="http://www.w3.org/2000/svg" width="601.652" height="313.77" viewBox="0 0 601.652 313.77">
  <path id="Union_2" data-name="Union 2" d="M39215.2,20524.914c-9.91-15.125-9.059-33.014,2.387-50.379,22-33.271,25.781-67.365,10-89-14.309-19.613-41.98-25.422-75.9-15.928-37.66,10.525-65.473,3-83.293-8.7a36.713,36.713,0,0,1-4.461,3.775c-.414.309-.859.615-1.277.893s-.863.555-1.3.822a39.028,39.028,0,0,1-19.785,5.412c-.645,0-1.238.029-1.91,0s-1.328-.051-2-.1c-1.547-.109-3.113-.287-4.707-.555-.844-.139-1.707-.307-2.566-.506a61.962,61.962,0,0,1-28.109-15c-.793-.713-1.566-1.457-2.309-2.229-.359-.309-.676-.664-1-1-.25-.268-.488-.516-.734-.8a58.439,58.439,0,0,1-9.437-13.895,54.557,54.557,0,0,1-5.262-18.484c-1.477-14.531-9-26.027-21.754-33.242a78.6,78.6,0,0,0-10.156-4.52c-9.625,20.2-47.012-2.439-47.012-2.439l2.031-4.539-14.273-5.729a3.4,3.4,0,1,1,2.527-6.3l14.52,5.828,6.563-14.65-14.508-5.826a3.275,3.275,0,0,1-1.863-1.814,3.361,3.361,0,0,1-.031-2.6,3.317,3.317,0,0,1,1.813-1.863,3.375,3.375,0,0,1,2.6-.021l14.77,5.918,1.535-3.43s38.023,7.5,32.945,32.482a62.321,62.321,0,0,1,11.16,4.893c1.156.664,2.277,1.348,3.359,2.063a47.153,47.153,0,0,1,15.172,16.115,49.114,49.114,0,0,1,5.867,19.139,49.481,49.481,0,0,0,3.746,14.5,54.965,54.965,0,0,0,15.84,20.8c.445.367.883.7,1.328,1.041a.166.166,0,0,0,.059.059,57.459,57.459,0,0,0,21.707,10.338l1.375.287h.063c.742.139,1.477.258,2.2.367l2.09.248c8.465.773,16.086-.992,22.332-5.105a15.393,15.393,0,0,0,1.277-.891,14.96,14.96,0,0,0,1.258-1c.637-.506,1.25-1.051,1.863-1.625-1.168-.893-2.277-1.8-3.34-2.727-.793-.674-1.445-1.3-2.277-2.07s-1.617-1.566-2.379-2.369a55.417,55.417,0,0,1-5.461-6.65,42.466,42.466,0,0,1-3.2-5.312c-.465-.922-.871-1.812-1.207-2.686-3.48-8.82-1.855-16.234,4.152-19.377a24.726,24.726,0,0,1,16.164-2.734,15.187,15.187,0,0,1,1.508.377c.484.129.961.287,1.438.465a17.3,17.3,0,0,1,6.5,4.3c7.207,7.623,6.75,20.25-1.258,33.787a39.435,39.435,0,0,1-2.785,4.164c16.7,10.713,42.836,17.482,78.387,7.551,36.184-10.088,65.918-3.586,81.609,17.91,17.125,23.471,13.359,59.873-9.8,95-10.387,15.721-11.18,31.131-2.387,44.57,13.371,20.369,46.672,31.717,77.5,26.375,33.926-5.908,58.395-30.131,67.129-66.475l.156-.605c4.59-19.1,18.535-77.168,78.813-85.949,18.188-2.656,34.59.287,48.7,8.623v6.135c-13.586-8.92-29.594-12.1-47.9-9.436-56.742,8.275-69.605,61.807-74.441,81.945l-.148.615c-9.238,38.455-35.266,64.174-71.371,70.449a98.859,98.859,0,0,1-16.832,1.445C39253.57,20555.043,39227.414,20543.557,39215.2,20524.914Zm-162.543-203.664c-3.637,1.912-3.418,6.4-2.637,9.652a22.647,22.647,0,0,0,1,3.072,32.2,32.2,0,0,0,2.7,5.244,42.981,42.981,0,0,0,3,4.281,58.871,58.871,0,0,0,10.715,10.357,38.546,38.546,0,0,0,2.547-3.846c6.75-11.389,7.492-21.646,1.992-27.453a12.188,12.188,0,0,0-5.352-3.271,14.04,14.04,0,0,0-1.566-.367,12.033,12.033,0,0,0-1.7-.207h-1.059A21.028,21.028,0,0,0,39052.66,20321.25Z" transform="translate(-38890.238 -20241.273)" fill="#e1e1e1"/>
</svg>
