<svg xmlns="http://www.w3.org/2000/svg" xmlns:xlink="http://www.w3.org/1999/xlink" width="126" height="177" viewBox="0 0 126 177">
  <defs>
    <clipPath id="clip-path">
      <rect width="126" height="177" fill="none"/>
    </clipPath>
  </defs>
  <g id="Repeat_Grid_18" data-name="Repeat Grid 18" opacity="0.19" clip-path="url(#clip-path)">
    <g transform="translate(-881 -991)">
      <circle id="Ellipse_546" data-name="Ellipse 546" cx="4" cy="4" r="4" transform="translate(881 991)" fill="#fff"/>
    </g>
    <g transform="translate(-858 -991)">
      <circle id="Ellipse_546-2" data-name="Ellipse 546" cx="4" cy="4" r="4" transform="translate(881 991)" fill="#fff"/>
    </g>
    <g transform="translate(-835 -991)">
      <circle id="Ellipse_546-3" data-name="Ellipse 546" cx="4" cy="4" r="4" transform="translate(881 991)" fill="#fff"/>
    </g>
    <g transform="translate(-812 -991)">
      <circle id="Ellipse_546-4" data-name="Ellipse 546" cx="4" cy="4" r="4" transform="translate(881 991)" fill="#fff"/>
    </g>
    <g transform="translate(-789 -991)">
      <circle id="Ellipse_546-5" data-name="Ellipse 546" cx="4" cy="4" r="4" transform="translate(881 991)" fill="#fff"/>
    </g>
    <g transform="translate(-766 -991)">
      <circle id="Ellipse_546-6" data-name="Ellipse 546" cx="4" cy="4" r="4" transform="translate(881 991)" fill="#fff"/>
    </g>
    <g transform="translate(-881 -968)">
      <circle id="Ellipse_546-7" data-name="Ellipse 546" cx="4" cy="4" r="4" transform="translate(881 991)" fill="#fff"/>
    </g>
    <g transform="translate(-858 -968)">
      <circle id="Ellipse_546-8" data-name="Ellipse 546" cx="4" cy="4" r="4" transform="translate(881 991)" fill="#fff"/>
    </g>
    <g transform="translate(-835 -968)">
      <circle id="Ellipse_546-9" data-name="Ellipse 546" cx="4" cy="4" r="4" transform="translate(881 991)" fill="#fff"/>
    </g>
    <g transform="translate(-812 -968)">
      <circle id="Ellipse_546-10" data-name="Ellipse 546" cx="4" cy="4" r="4" transform="translate(881 991)" fill="#fff"/>
    </g>
    <g transform="translate(-789 -968)">
      <circle id="Ellipse_546-11" data-name="Ellipse 546" cx="4" cy="4" r="4" transform="translate(881 991)" fill="#fff"/>
    </g>
    <g transform="translate(-766 -968)">
      <circle id="Ellipse_546-12" data-name="Ellipse 546" cx="4" cy="4" r="4" transform="translate(881 991)" fill="#fff"/>
    </g>
    <g transform="translate(-881 -945)">
      <circle id="Ellipse_546-13" data-name="Ellipse 546" cx="4" cy="4" r="4" transform="translate(881 991)" fill="#fff"/>
    </g>
    <g transform="translate(-858 -945)">
      <circle id="Ellipse_546-14" data-name="Ellipse 546" cx="4" cy="4" r="4" transform="translate(881 991)" fill="#fff"/>
    </g>
    <g transform="translate(-835 -945)">
      <circle id="Ellipse_546-15" data-name="Ellipse 546" cx="4" cy="4" r="4" transform="translate(881 991)" fill="#fff"/>
    </g>
    <g transform="translate(-812 -945)">
      <circle id="Ellipse_546-16" data-name="Ellipse 546" cx="4" cy="4" r="4" transform="translate(881 991)" fill="#fff"/>
    </g>
    <g transform="translate(-789 -945)">
      <circle id="Ellipse_546-17" data-name="Ellipse 546" cx="4" cy="4" r="4" transform="translate(881 991)" fill="#fff"/>
    </g>
    <g transform="translate(-766 -945)">
      <circle id="Ellipse_546-18" data-name="Ellipse 546" cx="4" cy="4" r="4" transform="translate(881 991)" fill="#fff"/>
    </g>
    <g transform="translate(-881 -922)">
      <circle id="Ellipse_546-19" data-name="Ellipse 546" cx="4" cy="4" r="4" transform="translate(881 991)" fill="#fff"/>
    </g>
    <g transform="translate(-858 -922)">
      <circle id="Ellipse_546-20" data-name="Ellipse 546" cx="4" cy="4" r="4" transform="translate(881 991)" fill="#fff"/>
    </g>
    <g transform="translate(-835 -922)">
      <circle id="Ellipse_546-21" data-name="Ellipse 546" cx="4" cy="4" r="4" transform="translate(881 991)" fill="#fff"/>
    </g>
    <g transform="translate(-812 -922)">
      <circle id="Ellipse_546-22" data-name="Ellipse 546" cx="4" cy="4" r="4" transform="translate(881 991)" fill="#fff"/>
    </g>
    <g transform="translate(-789 -922)">
      <circle id="Ellipse_546-23" data-name="Ellipse 546" cx="4" cy="4" r="4" transform="translate(881 991)" fill="#fff"/>
    </g>
    <g transform="translate(-766 -922)">
      <circle id="Ellipse_546-24" data-name="Ellipse 546" cx="4" cy="4" r="4" transform="translate(881 991)" fill="#fff"/>
    </g>
    <g transform="translate(-881 -899)">
      <circle id="Ellipse_546-25" data-name="Ellipse 546" cx="4" cy="4" r="4" transform="translate(881 991)" fill="#fff"/>
    </g>
    <g transform="translate(-858 -899)">
      <circle id="Ellipse_546-26" data-name="Ellipse 546" cx="4" cy="4" r="4" transform="translate(881 991)" fill="#fff"/>
    </g>
    <g transform="translate(-835 -899)">
      <circle id="Ellipse_546-27" data-name="Ellipse 546" cx="4" cy="4" r="4" transform="translate(881 991)" fill="#fff"/>
    </g>
    <g transform="translate(-812 -899)">
      <circle id="Ellipse_546-28" data-name="Ellipse 546" cx="4" cy="4" r="4" transform="translate(881 991)" fill="#fff"/>
    </g>
    <g transform="translate(-789 -899)">
      <circle id="Ellipse_546-29" data-name="Ellipse 546" cx="4" cy="4" r="4" transform="translate(881 991)" fill="#fff"/>
    </g>
    <g transform="translate(-766 -899)">
      <circle id="Ellipse_546-30" data-name="Ellipse 546" cx="4" cy="4" r="4" transform="translate(881 991)" fill="#fff"/>
    </g>
    <g transform="translate(-881 -876)">
      <circle id="Ellipse_546-31" data-name="Ellipse 546" cx="4" cy="4" r="4" transform="translate(881 991)" fill="#fff"/>
    </g>
    <g transform="translate(-858 -876)">
      <circle id="Ellipse_546-32" data-name="Ellipse 546" cx="4" cy="4" r="4" transform="translate(881 991)" fill="#fff"/>
    </g>
    <g transform="translate(-835 -876)">
      <circle id="Ellipse_546-33" data-name="Ellipse 546" cx="4" cy="4" r="4" transform="translate(881 991)" fill="#fff"/>
    </g>
    <g transform="translate(-812 -876)">
      <circle id="Ellipse_546-34" data-name="Ellipse 546" cx="4" cy="4" r="4" transform="translate(881 991)" fill="#fff"/>
    </g>
    <g transform="translate(-789 -876)">
      <circle id="Ellipse_546-35" data-name="Ellipse 546" cx="4" cy="4" r="4" transform="translate(881 991)" fill="#fff"/>
    </g>
    <g transform="translate(-766 -876)">
      <circle id="Ellipse_546-36" data-name="Ellipse 546" cx="4" cy="4" r="4" transform="translate(881 991)" fill="#fff"/>
    </g>
    <g transform="translate(-881 -853)">
      <circle id="Ellipse_546-37" data-name="Ellipse 546" cx="4" cy="4" r="4" transform="translate(881 991)" fill="#fff"/>
    </g>
    <g transform="translate(-858 -853)">
      <circle id="Ellipse_546-38" data-name="Ellipse 546" cx="4" cy="4" r="4" transform="translate(881 991)" fill="#fff"/>
    </g>
    <g transform="translate(-835 -853)">
      <circle id="Ellipse_546-39" data-name="Ellipse 546" cx="4" cy="4" r="4" transform="translate(881 991)" fill="#fff"/>
    </g>
    <g transform="translate(-812 -853)">
      <circle id="Ellipse_546-40" data-name="Ellipse 546" cx="4" cy="4" r="4" transform="translate(881 991)" fill="#fff"/>
    </g>
    <g transform="translate(-789 -853)">
      <circle id="Ellipse_546-41" data-name="Ellipse 546" cx="4" cy="4" r="4" transform="translate(881 991)" fill="#fff"/>
    </g>
    <g transform="translate(-766 -853)">
      <circle id="Ellipse_546-42" data-name="Ellipse 546" cx="4" cy="4" r="4" transform="translate(881 991)" fill="#fff"/>
    </g>
    <g transform="translate(-881 -830)">
      <circle id="Ellipse_546-43" data-name="Ellipse 546" cx="4" cy="4" r="4" transform="translate(881 991)" fill="#fff"/>
    </g>
    <g transform="translate(-858 -830)">
      <circle id="Ellipse_546-44" data-name="Ellipse 546" cx="4" cy="4" r="4" transform="translate(881 991)" fill="#fff"/>
    </g>
    <g transform="translate(-835 -830)">
      <circle id="Ellipse_546-45" data-name="Ellipse 546" cx="4" cy="4" r="4" transform="translate(881 991)" fill="#fff"/>
    </g>
    <g transform="translate(-812 -830)">
      <circle id="Ellipse_546-46" data-name="Ellipse 546" cx="4" cy="4" r="4" transform="translate(881 991)" fill="#fff"/>
    </g>
    <g transform="translate(-789 -830)">
      <circle id="Ellipse_546-47" data-name="Ellipse 546" cx="4" cy="4" r="4" transform="translate(881 991)" fill="#fff"/>
    </g>
    <g transform="translate(-766 -830)">
      <circle id="Ellipse_546-48" data-name="Ellipse 546" cx="4" cy="4" r="4" transform="translate(881 991)" fill="#fff"/>
    </g>
  </g>
</svg>
