<svg id="logo-BPL" xmlns="http://www.w3.org/2000/svg" width="230" height="71.486" viewBox="0 0 230 71.486">
  <path id="Union_139" data-name="Union 139" d="M108.544,41.982V36.91h10.792c2.47,0,3.567-1.241,3.567-4.012V18.227c0-2.532-1.1-3.658-3.567-3.658H113.06c-2.461,0-3.567,1.126-3.567,3.658v6.267c0,2.348,1.106,3.392,3.567,3.392H119.9v4.947h-7.449c-5.3,0-8.094-2.717-8.094-7.867V17.7c0-5.428,2.792-8.292,8.094-8.292h7.5c5.293,0,8.1,2.865,8.1,8.292V33.248c0,5.713-2.8,8.734-8.1,8.734Zm-53.687,0V36.91h10.8c2.461,0,3.558-1.241,3.558-4.012v-.065H58.764c-5.3,0-8.092-2.717-8.092-7.867V9.409h5.134V24.494c0,2.348,1.088,3.392,3.523,3.392h9.89V9.409h5.143V33.248c0,5.713-2.8,8.734-8.092,8.734Zm159.022-7.755c-4.546,0-7.053-2.495-7.053-7.024V25.41c0-2.264.885-6.064,6.738-6.064h8.288v4.547h-7.458c-2.238,0-2.553.982-2.553,2.045v1.053c0,1.764.776,2.524,2.6,2.524h6.941c2.434,0,3.475-1.1,3.475-3.671V18.005c0-2.43-1.032-3.521-3.346-3.521H207.527V9.409h14.379C227.2,9.409,230,12.274,230,17.7v8.236c0,5.425-2.8,8.289-8.094,8.289Zm-14.428,0V26.851c0-2.135-.929-3.086-3.031-3.086h-9.5V34.227H181.78V0h5.144V18.737l9.716-9.327h6.553l-10.6,10.028h5.181c4.4,0,6.821,2.433,6.821,6.851v7.939Zm-41.9,0V29.515h14.51c1.955,0,2.12-.823,2.12-1.738V25.187c0-1.119-.442-1.507-1.687-1.507h-9.161c-3.817,0-6-2.07-6-5.675V15.426c0-3.881,2.214-6.017,6.223-6.017h14.674v4.724H164.339c-1.418,0-1.945.47-1.945,1.726v1.8c0,1.119.453,1.517,1.724,1.517h9.164c3.843,0,5.954,2,5.954,5.666v3.318c0,3.909-2.249,6.063-6.343,6.063Zm-18.444,0c-5.291,0-8.092-2.865-8.092-8.289V17.7c0-5.428,2.8-8.292,8.092-8.292h7.725c5.291,0,8.094,2.865,8.094,8.292v8.236c0,5.425-2.8,8.289-8.094,8.289Zm.608-4.456h0c-2.829,0-4.2-1.432-4.2-4.362C135.515,28.339,136.889,29.771,139.718,29.771ZM136.16,18.227V25.41c0,2.56,1.106,3.708,3.558,3.708h6.508c2.462,0,3.558-1.147,3.558-3.708V18.227c0-2.532-1.1-3.658-3.558-3.658h-6.508C137.266,14.568,136.16,15.695,136.16,18.227Zm-50.469,16c-5.291,0-8.092-2.865-8.092-8.289V17.7c0-5.428,2.8-8.292,8.092-8.292H92.91v5.159H86.3c-2.461,0-3.558,1.126-3.558,3.658V25.41c0,2.56,1.1,3.708,3.558,3.708h6.287c2.462,0,3.567-1.147,3.567-3.708V0h5.135V25.938c0,5.425-2.794,8.289-8.092,8.289Zm-54.155-.009V28.987h8.1c2.388,0,3.448-.979,3.448-3.189V22.424c0-1.376-.424-2.959-3.741-2.959H31.7v-4.89h7.643c3.143,0,3.567-1.358,3.567-2.7v-2.8c0-2.479-1.032-3.542-3.44-3.542H28.7V19.484H23.44V.3H40c5.28,0,8.074,2.858,8.074,8.246v2.976a6.624,6.624,0,0,1-2.379,5.519,6.706,6.706,0,0,1,2.647,5.823v3.458c0,5.166-2.812,7.892-8.13,7.892Zm-10.584,0V27.61h6.729v6.608ZM14.195,27.6v-4.04h4.114V27.6ZM0,24.893v-6.61H6.729v6.61Zm8.748-3.56V9.131H21.182v12.2Z" fill="#fff"/>
  <g id="Group_29720" data-name="Group 29720" transform="translate(23.508 48.379)">
    <g id="Group_29721" data-name="Group 29721" transform="translate(0 0)">
      <path id="Union_138" data-name="Union 138" d="M158.316,23.107V21.316h.833c1.309,0,1.988-.761,1.988-2.227V5.562h1.841V19.289c0,2.533-1.161,3.818-3.478,3.818Zm39.43-4.472c-2.344,0-3.5-1.165-3.5-3.488v-1.04c0-1.949,1.083-2.931,3.325-2.931h6.068v1.488h-5.592c-1.359,0-2.039.585-2.039,1.744v.607a1.817,1.817,0,0,0,2.067,2.023h4.005c1.711,0,2.567-.882,2.567-2.676V9.834c0-1.721-.828-2.6-2.492-2.6h-7.506V5.437h7.732c2.724,0,4.107,1.415,4.107,4.221v4.75c0,2.812-1.382,4.227-4.107,4.227Zm-7.76,0V14.942a2.067,2.067,0,0,0-2.317-2.352H181.62v6.044h-1.836V0h1.836V11.477h.1l6.3-6.04h2.141l-6.123,5.789h4.412c2.243,0,3.376,1.137,3.376,3.387v4.022Zm-24.187,0v-1.6h7.811c1.211,0,1.789-.506,1.789-1.568v-1.49c0-.96-.5-1.443-1.535-1.443h-5.3c-1.915,0-2.894-.909-2.894-2.7V8.34c0-1.921,1.007-2.9,3.025-2.9h7.908V7.028h-7.455c-1.133,0-1.689.528-1.689,1.568V9.63c0,.96.5,1.443,1.563,1.443h5.286c1.915,0,2.872.91,2.872,2.7V15.7c0,1.949-1.031,2.937-3.093,2.937Zm-17.158,0c-2.743,0-4.1-1.415-4.1-4.227V9.658c0-2.806,1.359-4.221,4.1-4.221h4.611c2.344,0,3.529,1.159,3.529,3.488V9.987c0,1.944-1.11,2.909-3.325,2.909h-6.1V11.4h5.6q2.039,0,2.039-1.744V9.05a1.807,1.807,0,0,0-2.067-2.022h-3.977c-1.739,0-2.594.909-2.594,2.681v4.522c0,1.744.827,2.608,2.516,2.608h7.482v1.8Zm-8.917,0V5.562h1.841V18.635Zm-4.961,0V3.738l-5.8,14.9h-1.84l-5.9-14.918V18.635h-1.762V.176h2.266l6.326,16.361L134.309.176h2.238V18.635Zm-32.955,0c-2.341,0-3.5-1.165-3.5-3.488v-1.04c0-1.949,1.082-2.931,3.325-2.931H107.7v1.488h-5.59c-1.365,0-2.045.585-2.045,1.744v.607a1.819,1.819,0,0,0,2.067,2.023h4.005c1.716,0,2.572-.882,2.572-2.676V9.834c0-1.721-.833-2.6-2.492-2.6H98.709V5.437h7.737c2.719,0,4.107,1.415,4.107,4.221v4.75c0,2.812-1.387,4.227-4.107,4.227Zm-8.112,0V9.959c0-1.794-.856-2.7-2.567-2.7H86.768v11.38H85.007V7.255H78.05v11.38H76.238V5.437H91.481c2.7,0,4.055,1.415,4.055,4.221v8.977Zm-27.41,0V9.681c0-2.806,1.359-4.221,4.107-4.221h3.551V7.278H70.721c-1.712,0-2.595.914-2.595,2.709v8.647Zm-11.562,0c-2.747,0-4.108-1.415-4.108-4.227V9.658c0-2.806,1.36-4.221,4.108-4.221h4.457c2.719,0,4.108,1.415,4.108,4.221v4.75c0,2.812-1.388,4.227-4.108,4.227ZM52.453,9.959v4.147c0,1.8.883,2.7,2.622,2.7h3.756c1.739,0,2.617-.909,2.617-2.7V9.959c0-1.794-.878-2.681-2.617-2.681H55.075A2.345,2.345,0,0,0,52.453,9.959Zm-8.464,8.675V3.312c0-2.227,1.06-3.312,3.2-3.312h1.638V1.54H47.565c-1.184,0-1.762.607-1.762,1.824V5.437h2.922V7.078H45.8V18.635Zm-6.9,0V7.078h-2.47V5.437h2.47v-4.3h1.84v4.3H41.77V7.078H38.925V18.635Zm-13.075,0c-2.344,0-3.5-1.165-3.5-3.488v-1.04c0-1.949,1.083-2.931,3.325-2.931h6.073v1.488h-5.6c-1.359,0-2.039.585-2.039,1.744v.607a1.819,1.819,0,0,0,2.067,2.023h4.005c1.711,0,2.572-.882,2.572-2.676V9.834c0-1.721-.833-2.6-2.5-2.6H20.913V5.437h7.732c2.724,0,4.107,1.415,4.107,4.221v4.75c0,2.812-1.382,4.227-4.107,4.227Zm-8.213,0V0h1.84V18.635Zm-15.8,0V.176H9.476c2.743,0,4.1,1.391,4.1,4.221v1.8c0,2.829-1.359,4.221-4.1,4.221H2.922V8.619H9.3a2.13,2.13,0,0,0,2.368-2.45V4.522c0-1.641-.777-2.449-2.368-2.449H1.915V18.635Zm161.137-15.7V0h1.841V2.931Zm-21.412,0V0h1.841V2.931Z" fill="#fff"/>
    </g>
  </g>
</svg>
