<svg id="logo-duze-torun" xmlns="http://www.w3.org/2000/svg" xmlns:xlink="http://www.w3.org/1999/xlink" width="230" height="53.572" viewBox="0 0 230 53.572">
  <defs>
    <clipPath id="clip-path">
      <rect id="Rectangle_6792" data-name="Rectangle 6792" width="230" height="53.572" transform="translate(0 0)" fill="#fff"/>
    </clipPath>
  </defs>
  <g id="logo-duze-torun-2" data-name="logo-duze-torun" clip-path="url(#clip-path)">
    <path id="Path_264383" data-name="Path 264383" d="M300.774,9.948a13.446,13.446,0,0,0-7.395,2.04v3.57a10.711,10.711,0,0,1,7.1-2.678q4.485,0,4.485,5.547l-6.525.915q-7.183,1-7.181,7.1a5.948,5.948,0,0,0,1.839,4.57,7.126,7.126,0,0,0,5.088,1.723,7.3,7.3,0,0,0,6.694-3.909h.085v3.4h3.485V18.066q0-8.12-7.672-8.118m4.186,13.433a6.479,6.479,0,0,1-1.687,4.6,5.608,5.608,0,0,1-4.284,1.816,4.417,4.417,0,0,1-3.026-1.009,3.344,3.344,0,0,1-1.142-2.606,3.454,3.454,0,0,1,1.236-3.048,8.5,8.5,0,0,1,3.655-1.2l5.248-.723Zm-26.536-2.423,10.09-10.5h-4.57l-9.135,9.97h-.085V0h-3.485V32.222h3.485V21.765h.085l9.6,10.456H289.3Zm-12.978,3.164A5.169,5.169,0,0,0,264.2,22.43a9.047,9.047,0,0,0-1.955-1.317,27.321,27.321,0,0,0-2.593-1.138c-.723-.281-1.37-.544-1.932-.785a6.853,6.853,0,0,1-1.446-.808,3.083,3.083,0,0,1-.9-1.018,2.979,2.979,0,0,1-.308-1.428,2.461,2.461,0,0,1,.308-1.241,2.872,2.872,0,0,1,.87-.968,4.316,4.316,0,0,1,1.348-.625,6.542,6.542,0,0,1,1.763-.223,9.843,9.843,0,0,1,5.525,1.575v-3.53a12.438,12.438,0,0,0-5.056-.977,11.674,11.674,0,0,0-3.093.4,8.6,8.6,0,0,0-2.664,1.2,6.184,6.184,0,0,0-1.87,1.977,5.151,5.151,0,0,0-.7,2.709,5.836,5.836,0,0,0,.37,2.191,4.909,4.909,0,0,0,1.1,1.665,7.706,7.706,0,0,0,1.83,1.321,25.515,25.515,0,0,0,2.539,1.16c.7.268,1.343.527,1.946.777a7.973,7.973,0,0,1,1.575.839,3.913,3.913,0,0,1,1.062,1.071,2.653,2.653,0,0,1,.393,1.477q0,3.059-4.592,3.062a10.308,10.308,0,0,1-6.266-2.1v3.74a12.341,12.341,0,0,0,5.82,1.294,13.541,13.541,0,0,0,3.253-.384,8.734,8.734,0,0,0,2.736-1.165,6.1,6.1,0,0,0,1.9-1.977,5.341,5.341,0,0,0,.714-2.807,5.456,5.456,0,0,0-.433-2.276M244.315,12.255a6.652,6.652,0,0,0-5.462-2.307,7.855,7.855,0,0,0-7.141,4.124h-.085V10.456h-3.485V32.222h3.485V19.811a7.305,7.305,0,0,1,1.709-4.967,5.491,5.491,0,0,1,4.324-1.964q5.061,0,5.061,6.931V32.222H246.2l0-13.3q0-4.358-1.892-6.663m-26.692-1.8V23a7.2,7.2,0,0,1-1.647,4.923,5.333,5.333,0,0,1-4.2,1.879q-5.275,0-5.271-6.886V10.456h-3.463V23.466q0,9.265,7.774,9.265a7.154,7.154,0,0,0,6.717-3.954h.085v3.445h3.485V10.456Zm-19.971-.384a5.214,5.214,0,0,0-3.423,1.285,7.63,7.63,0,0,0-2.272,3.584h-.085V10.456h-3.485V32.222h3.485V21.127a9.721,9.721,0,0,1,1.5-5.739,4.458,4.458,0,0,1,3.731-2.106,4.264,4.264,0,0,1,2.633.705V10.372a5.681,5.681,0,0,0-2.08-.3m-17.566,2.87a9.771,9.771,0,0,0-7.6-2.995,10.786,10.786,0,0,0-8.1,3.079Q161.4,16.113,161.4,21.6a11.305,11.305,0,0,0,2.879,8.087,10.1,10.1,0,0,0,7.7,3.048,10.309,10.309,0,0,0,7.895-3.133,11.7,11.7,0,0,0,2.945-8.345q0-5.309-2.731-8.31m-2.66,14.665a6.366,6.366,0,0,1-5.195,2.191,6.715,6.715,0,0,1-5.288-2.231,8.857,8.857,0,0,1-1.977-6.1,9.407,9.407,0,0,1,1.955-6.3,6.632,6.632,0,0,1,5.311-2.285,6.327,6.327,0,0,1,5.2,2.209,9.674,9.674,0,0,1,1.816,6.293,9.483,9.483,0,0,1-1.821,6.226M141.674,1.745V4.972h8.778v27.25h3.57V4.972h8.8V1.745Z" transform="translate(-78.447 0)" fill="#fff"/>
    <path id="Path_264384" data-name="Path 264384" d="M162.736,101.4V97.727h1.922c1.492,0,2.123.689,2.123,1.851,0,1.119-.631,1.823-2.123,1.823Zm5.38-1.823c0-1.636-1.1-2.927-3.457-2.927h-3.228v10h1.305v-4.176h1.922c2.483,0,3.458-1.379,3.458-2.9Zm2.683-2.927v10h4.806v-1.062h-3.5v-8.94Zm13.974,10h1.377l-3.6-9.945h-1.506l-3.615,9.945h1.378l.8-2.224h4.362Zm-1.176-3.286h-3.615l1.808-5.051Zm4.577-5.655h2.74v8.941h1.305v-8.94h2.726V96.651h-6.771Zm9.44,8.941h1.305v-4.507h3.529v-1.062h-3.529V97.711h4.347V96.65h-5.653Zm17.847-5.008a4.924,4.924,0,0,0-4.736-5.106c-.1,0-.19,0-.285,0a4.933,4.933,0,0,0-5.023,4.841c0,.089,0,.178,0,.267a4.933,4.933,0,0,0,4.754,5.106c.089,0,.178,0,.267,0a4.925,4.925,0,0,0,5.024-4.824c0-.1,0-.191,0-.286Zm-8.708,0a3.7,3.7,0,1,1,3.687,3.975,3.645,3.645,0,0,1-3.687-3.975ZM223.6,99.591c0,1.119-.646,1.923-2.123,1.923h-1.921V97.727h1.919c1.494,0,2.125.731,2.125,1.864Zm-5.351-2.942v10h1.307v-4.09h1.578l2.381,4.09h1.562l-2.511-4.19a2.82,2.82,0,0,0,2.381-2.87c0-1.636-1.119-2.942-3.472-2.942Zm9.784,10h1.305V99.234l3.314,7.419h.917l3.3-7.4v7.4h1.305v-9.93h-1.392l-3.673,8.208-3.673-8.208h-1.406Zm20.127,0h1.377l-3.6-9.945h-1.506l-3.615,9.945h1.377l.8-2.224h4.364Zm-1.176-3.286h-3.615l1.807-5.051Zm10.086,3.286h1.305V99.234l3.314,7.419h.918l3.3-7.4v7.4h1.305v-9.93h-1.39l-3.673,8.208-3.673-8.208h-1.406Zm13.414,0h1.305v-10h-1.305Zm9.971-10.016h-5.381v10.016h5.382v-1.076h-4.074v-3.444h3.646v-1.076h-3.646V97.712h4.074Zm6.758,7.4a1.381,1.381,0,0,1-1.449,1.55c-1.033,0-1.463-.732-1.478-1.651h-1.305a2.613,2.613,0,0,0,2.783,2.812,2.574,2.574,0,0,0,2.767-2.712v-7.39h-1.318Zm11.448-.115c0-3.7-5.394-2.095-5.394-4.678,0-1.076.848-1.636,1.923-1.607a1.811,1.811,0,0,1,1.937,1.45h1.435c-.158-1.521-1.406-2.569-3.314-2.569-1.98,0-3.314,1.119-3.314,2.77,0,3.717,5.409,1.994,5.409,4.692,0,.947-.746,1.665-2.008,1.665a1.852,1.852,0,0,1-2.066-1.665h-1.391c.029,1.651,1.449,2.77,3.457,2.77,2.166,0,3.328-1.407,3.328-2.828Zm8.407,2.726h1.707l-4.577-4.994,4.533-5.008h-1.651l-4.132,4.635V96.649h-1.306v10h1.306v-4.563Zm10.946,0h1.377l-3.6-9.945h-1.507l-3.615,9.945h1.377l.8-2.224h4.362Zm-1.176-3.286h-3.615l1.807-5.051Z" transform="translate(-89.387 -53.445)" fill="#fff"/>
    <path id="Path_264385" data-name="Path 264385" d="M0,2H52.68v52.68H35.254v-3.32H49.36V5.3H3.3V51.359H17.584v3.32H0V2Z" transform="translate(0 -1.107)" fill="#fff"/>
    <path id="Path_264386" data-name="Path 264386" d="M56.907,58.906H50.941V56a.97.97,0,0,0-.063-.351,4.226,4.226,0,0,0-2.373-2.3.994.994,0,0,0-.756,0,4.224,4.224,0,0,0-2.372,2.3.961.961,0,0,0-.063.351v2.905H39.347V41.345h3.512v3.513h3.512V41.345h3.512v3.513H53.4V41.345h3.512v17.56Z" transform="translate(-21.787 -22.893)" fill="#fff"/>
    <path id="Path_264387" data-name="Path 264387" d="M354.478,2.332a13.242,13.242,0,0,1-1.031,1.348q-.674.793-1.487,1.645T350.336,6.95q-.813.773-1.526,1.328h-2.3V7.8q.594-.753,1.288-1.785T349.168,3.9q.674-1.09,1.11-1.964h4.2Z" transform="translate(-191.87 -1.07)" fill="#fff"/>
  </g>
</svg>
