<svg id="logo-duze-grudziadz" xmlns="http://www.w3.org/2000/svg" width="230" height="77.31" viewBox="0 0 230 77.31">
  <path id="Path_262526" data-name="Path 262526" d="M57.749,46.313H39.776V30.106A8.8,8.8,0,0,1,46.44,21.6,24.617,24.617,0,0,1,57.749,42.31Zm0,11.919H22.505V63.8H57.749v5.263H14.5V42.252A24.641,24.641,0,0,1,29.134,19.744l6.9-3.064,3.559,1.566a14.891,14.891,0,0,0-5.922,11.86V52.413H57.749ZM45.515,14.188l-9.49-4.178-9.364,4.161A30.738,30.738,0,0,0,8.4,42.252V75.173H63.853V42.31A30.74,30.74,0,0,0,45.515,14.188" transform="translate(1.901 2.135)" fill="#fff"/>
  <path id="Path_262527" data-name="Path 262527" d="M76.062,44.318V77.31h-6.1V44.318A36.136,36.136,0,0,0,48.368,11.264L37.9,6.659,27.6,11.225A36.143,36.143,0,0,0,6.1,44.239V77.31H0V44.239A42.24,42.24,0,0,1,25.122,5.66L37.886,0,50.823,5.69A42.226,42.226,0,0,1,76.062,44.318" fill="#fff"/>
  <path id="Path_262528" data-name="Path 262528" d="M77.143,40.1v-.044a8.026,8.026,0,0,1,8.326-8.038,9.011,9.011,0,0,1,6.271,2.253L89.224,37.3a5.46,5.46,0,0,0-3.733-1.458,4.061,4.061,0,0,0-3.953,4.24v.044a4.084,4.084,0,0,0,4.2,4.285,4.371,4.371,0,0,0,2.473-.64V41.892H85.16V38.756h7.11v6.958A10.451,10.451,0,0,1,85.558,48.1c-4.814,0-8.415-3.313-8.415-8" transform="translate(17.286 7.162)" fill="#fff"/>
  <path id="Path_262529" data-name="Path 262529" d="M98.539,39.693c1.458,0,2.3-.708,2.3-1.833v-.044c0-1.215-.883-1.833-2.319-1.833h-2.8v3.711Zm-7.111-7.42h7.31c2.363,0,4,.618,5.035,1.678a4.792,4.792,0,0,1,1.37,3.6v.044a4.888,4.888,0,0,1-3.18,4.748l3.687,5.388H100.7L97.59,43.049H95.713v4.682H91.428Z" transform="translate(20.49 7.221)" fill="#fff"/>
  <path id="Path_262530" data-name="Path 262530" d="M104.218,40.951V32.273h4.351v8.59c0,2.231,1.127,3.29,2.849,3.29s2.849-1.015,2.849-3.18v-8.7h4.351v8.568c0,4.991-2.849,7.177-7.243,7.177s-7.155-2.229-7.155-7.067" transform="translate(23.356 7.219)" fill="#fff"/>
  <path id="Path_262531" data-name="Path 262531" d="M124.065,43.933c2.56,0,4.261-1.414,4.261-3.909V39.98c0-2.473-1.7-3.908-4.261-3.908H122.32v7.862Zm-6.029-11.66H124c5.521,0,8.722,3.18,8.722,7.641v.044c0,4.461-3.246,7.773-8.811,7.773h-5.875Z" transform="translate(26.451 7.221)" fill="#fff"/>
  <path id="Path_262532" data-name="Path 262532" d="M130.789,44.617l7.751-8.724h-7.486V32.273H144.46v3.113l-7.751,8.724h7.751v3.621h-13.67Z" transform="translate(29.31 7.221)" fill="#fff"/>
  <rect id="Rectangle_5979" data-name="Rectangle 5979" width="4.307" height="15.458" transform="translate(176.078 39.492)" fill="#fff"/>
  <path id="Path_262533" data-name="Path 262533" d="M158.977,41.657l-1.723-4.395-1.745,4.395Zm2.429,7.884a2.571,2.571,0,0,1,.883-1.789h-.949l-1.126-2.76h-5.963l-1.1,2.76h-4.506l6.581-15.57h4.13l6.58,15.57h-.972a1.583,1.583,0,0,0-.486,1.039c0,.574.486.839,1.59.795v1.789c-2.849.4-4.659-.486-4.659-1.833" transform="translate(33.251 7.195)" fill="#fff"/>
  <path id="Path_262534" data-name="Path 262534" d="M170,43.933c2.562,0,4.263-1.414,4.263-3.909V39.98c0-2.473-1.7-3.908-4.263-3.908h-1.744v7.862Zm-6.028-11.66h5.962c5.522,0,8.724,3.18,8.724,7.641v.044c0,4.461-3.246,7.773-8.811,7.773h-5.875Z" transform="translate(36.72 7.221)" fill="#fff"/>
  <path id="Path_262535" data-name="Path 262535" d="M176.725,44.617l7.751-8.724H176.99V32.273H190.4v3.113l-7.751,8.724H190.4v3.621h-13.67Z" transform="translate(39.604 7.221)" fill="#fff"/>
</svg>
