<svg id="Google-Logo.wine" xmlns="http://www.w3.org/2000/svg" width="72.909" height="24" viewBox="0 0 72.909 24">
  <path id="Path_264022" data-name="Path 264022" d="M82.979,30.556a6.045,6.045,0,1,1-6.045-6.026A5.951,5.951,0,0,1,82.979,30.556Zm-2.646,0a3.407,3.407,0,1,0-6.8,0,3.407,3.407,0,1,0,6.8,0Z" transform="translate(-51.74 -17.929)" fill="#ea4335"/>
  <path id="Path_264023" data-name="Path 264023" d="M130.979,30.556a6.045,6.045,0,1,1-6.045-6.026A5.951,5.951,0,0,1,130.979,30.556Zm-2.646,0a3.407,3.407,0,1,0-6.8,0,3.407,3.407,0,1,0,6.8,0Z" transform="translate(-86.773 -17.929)" fill="#fbbc05"/>
  <path id="Path_264024" data-name="Path 264024" d="M178.422,24.894V35.712c0,4.45-2.624,6.267-5.727,6.267a5.738,5.738,0,0,1-5.341-3.551l2.3-.959a3.328,3.328,0,0,0,3.035,2.138c1.986,0,3.217-1.225,3.217-3.532v-.867h-.092a4.1,4.1,0,0,1-3.173,1.369,6.03,6.03,0,0,1,0-12.049,4.176,4.176,0,0,1,3.173,1.347h.092V24.9h2.513ZM176.1,30.577a3.4,3.4,0,0,0-3.217-3.673,3.484,3.484,0,0,0-3.355,3.673,3.458,3.458,0,0,0,3.355,3.63A3.368,3.368,0,0,0,176.1,30.577Z" transform="translate(-121.79 -17.98)" fill="#4285f4"/>
  <path id="Path_264025" data-name="Path 264025" d="M217.721,2.53V20.189H215.14V2.53Z" transform="translate(-156.978 -1.843)" fill="#34a853"/>
  <path id="Path_264026" data-name="Path 264026" d="M237.676,32.532,239.73,33.9a6,6,0,0,1-5.021,2.671,5.9,5.9,0,0,1-5.98-6.026,5.726,5.726,0,0,1,5.683-6.026,5.6,5.6,0,0,1,5.156,3.833l.274.685-8.055,3.336a3.067,3.067,0,0,0,2.92,1.826A3.439,3.439,0,0,0,237.676,32.532Zm-6.322-2.168,5.385-2.236a2.333,2.333,0,0,0-2.236-1.277A3.305,3.305,0,0,0,231.354,30.364Z" transform="translate(-166.936 -17.921)" fill="#ea4335"/>
  <path id="Path_264027" data-name="Path 264027" d="M9.49,11.122V8.566H18.1a8.471,8.471,0,0,1,.128,1.543,8.442,8.442,0,0,1-2.214,5.98,8.556,8.556,0,0,1-6.526,2.624A9.488,9.488,0,0,1,0,9.356,9.488,9.488,0,0,1,9.492,0,8.915,8.915,0,0,1,15.9,2.578l-1.8,1.8A6.516,6.516,0,0,0,9.49,2.556a6.712,6.712,0,0,0-6.71,6.8,6.712,6.712,0,0,0,6.71,6.8,6.259,6.259,0,0,0,4.724-1.872A5.3,5.3,0,0,0,15.6,11.12Z" fill="#4285f4"/>
</svg>
