<svg xmlns="http://www.w3.org/2000/svg" xmlns:xlink="http://www.w3.org/1999/xlink" width="153" height="80" viewBox="0 0 153 80">
  <defs>
    <clipPath id="clip-path">
      <rect width="153" height="80" fill="none"/>
    </clipPath>
  </defs>
  <g id="Repeat_Grid_63" data-name="Repeat Grid 63" opacity="0.1" clip-path="url(#clip-path)">
    <g transform="translate(-881 -991)">
      <circle id="Ellipse_546" data-name="Ellipse 546" cx="4" cy="4" r="4" transform="translate(881 991)" fill="#1a73de"/>
    </g>
    <g transform="translate(-858 -991)">
      <circle id="Ellipse_546-2" data-name="Ellipse 546" cx="4" cy="4" r="4" transform="translate(881 991)" fill="#1a73de"/>
    </g>
    <g transform="translate(-835 -991)">
      <circle id="Ellipse_546-3" data-name="Ellipse 546" cx="4" cy="4" r="4" transform="translate(881 991)" fill="#1a73de"/>
    </g>
    <g transform="translate(-812 -991)">
      <circle id="Ellipse_546-4" data-name="Ellipse 546" cx="4" cy="4" r="4" transform="translate(881 991)" fill="#1a73de"/>
    </g>
    <g transform="translate(-789 -991)">
      <circle id="Ellipse_546-5" data-name="Ellipse 546" cx="4" cy="4" r="4" transform="translate(881 991)" fill="#1a73de"/>
    </g>
    <g transform="translate(-766 -991)">
      <circle id="Ellipse_546-6" data-name="Ellipse 546" cx="4" cy="4" r="4" transform="translate(881 991)" fill="#1a73de"/>
    </g>
    <g transform="translate(-743 -991)">
      <circle id="Ellipse_546-7" data-name="Ellipse 546" cx="4" cy="4" r="4" transform="translate(881 991)" fill="#1a73de"/>
    </g>
    <g transform="translate(-881 -968)">
      <circle id="Ellipse_546-8" data-name="Ellipse 546" cx="4" cy="4" r="4" transform="translate(881 991)" fill="#1a73de"/>
    </g>
    <g transform="translate(-858 -968)">
      <circle id="Ellipse_546-9" data-name="Ellipse 546" cx="4" cy="4" r="4" transform="translate(881 991)" fill="#1a73de"/>
    </g>
    <g transform="translate(-835 -968)">
      <circle id="Ellipse_546-10" data-name="Ellipse 546" cx="4" cy="4" r="4" transform="translate(881 991)" fill="#1a73de"/>
    </g>
    <g transform="translate(-812 -968)">
      <circle id="Ellipse_546-11" data-name="Ellipse 546" cx="4" cy="4" r="4" transform="translate(881 991)" fill="#1a73de"/>
    </g>
    <g transform="translate(-789 -968)">
      <circle id="Ellipse_546-12" data-name="Ellipse 546" cx="4" cy="4" r="4" transform="translate(881 991)" fill="#1a73de"/>
    </g>
    <g transform="translate(-766 -968)">
      <circle id="Ellipse_546-13" data-name="Ellipse 546" cx="4" cy="4" r="4" transform="translate(881 991)" fill="#1a73de"/>
    </g>
    <g transform="translate(-743 -968)">
      <circle id="Ellipse_546-14" data-name="Ellipse 546" cx="4" cy="4" r="4" transform="translate(881 991)" fill="#1a73de"/>
    </g>
    <g transform="translate(-881 -945)">
      <circle id="Ellipse_546-15" data-name="Ellipse 546" cx="4" cy="4" r="4" transform="translate(881 991)" fill="#1a73de"/>
    </g>
    <g transform="translate(-858 -945)">
      <circle id="Ellipse_546-16" data-name="Ellipse 546" cx="4" cy="4" r="4" transform="translate(881 991)" fill="#1a73de"/>
    </g>
    <g transform="translate(-835 -945)">
      <circle id="Ellipse_546-17" data-name="Ellipse 546" cx="4" cy="4" r="4" transform="translate(881 991)" fill="#1a73de"/>
    </g>
    <g transform="translate(-812 -945)">
      <circle id="Ellipse_546-18" data-name="Ellipse 546" cx="4" cy="4" r="4" transform="translate(881 991)" fill="#1a73de"/>
    </g>
    <g transform="translate(-789 -945)">
      <circle id="Ellipse_546-19" data-name="Ellipse 546" cx="4" cy="4" r="4" transform="translate(881 991)" fill="#1a73de"/>
    </g>
    <g transform="translate(-766 -945)">
      <circle id="Ellipse_546-20" data-name="Ellipse 546" cx="4" cy="4" r="4" transform="translate(881 991)" fill="#1a73de"/>
    </g>
    <g transform="translate(-743 -945)">
      <circle id="Ellipse_546-21" data-name="Ellipse 546" cx="4" cy="4" r="4" transform="translate(881 991)" fill="#1a73de"/>
    </g>
    <g transform="translate(-881 -922)">
      <circle id="Ellipse_546-22" data-name="Ellipse 546" cx="4" cy="4" r="4" transform="translate(881 991)" fill="#1a73de"/>
    </g>
    <g transform="translate(-858 -922)">
      <circle id="Ellipse_546-23" data-name="Ellipse 546" cx="4" cy="4" r="4" transform="translate(881 991)" fill="#1a73de"/>
    </g>
    <g transform="translate(-835 -922)">
      <circle id="Ellipse_546-24" data-name="Ellipse 546" cx="4" cy="4" r="4" transform="translate(881 991)" fill="#1a73de"/>
    </g>
    <g transform="translate(-812 -922)">
      <circle id="Ellipse_546-25" data-name="Ellipse 546" cx="4" cy="4" r="4" transform="translate(881 991)" fill="#1a73de"/>
    </g>
    <g transform="translate(-789 -922)">
      <circle id="Ellipse_546-26" data-name="Ellipse 546" cx="4" cy="4" r="4" transform="translate(881 991)" fill="#1a73de"/>
    </g>
    <g transform="translate(-766 -922)">
      <circle id="Ellipse_546-27" data-name="Ellipse 546" cx="4" cy="4" r="4" transform="translate(881 991)" fill="#1a73de"/>
    </g>
    <g transform="translate(-743 -922)">
      <circle id="Ellipse_546-28" data-name="Ellipse 546" cx="4" cy="4" r="4" transform="translate(881 991)" fill="#1a73de"/>
    </g>
  </g>
</svg>
