<svg id="icon-alert-ok-big-v1.1" xmlns="http://www.w3.org/2000/svg" xmlns:xlink="http://www.w3.org/1999/xlink" width="100" height="100" viewBox="0 0 100 100">
  <defs>
    <clipPath id="clip-path">
      <rect id="Rectangle_2265" data-name="Rectangle 2265" width="87" height="87" fill="none"/>
    </clipPath>
  </defs>
  <path id="Path_428" data-name="Path 428" d="M0,0H100V100H0Z" fill="none" opacity="0.87"/>
  <g id="Group_10006" data-name="Group 10006" transform="translate(6 7)">
    <g id="Group_10006-2" data-name="Group 10006" transform="translate(0 0)" clip-path="url(#clip-path)">
      <path id="Union_47" data-name="Union 47" d="M8455.644,5442.6a43.484,43.484,0,1,1,16.854,3.4h-.064A43.118,43.118,0,0,1,8455.644,5442.6Zm-21.447-39.88a38.3,38.3,0,1,0,38.3-38.3A38.3,38.3,0,0,0,8434.2,5402.72Zm31.7,16.419-15.694-15.7a3.463,3.463,0,0,1-.953-3.373,3.419,3.419,0,0,1,3.291-2.506,3.382,3.382,0,0,1,2.4,1l12.7,12.689a1,1,0,0,0,1.407,0l0,0,21.787-21.928a3.368,3.368,0,0,1,2.834-1.005,3.465,3.465,0,0,1,2.558,1.672,3.312,3.312,0,0,1,.218,2.945l0,0a3.45,3.45,0,0,1-.8,1.2l-24.931,25a3.41,3.41,0,0,1-4.814,0Z" transform="translate(-8429 -5359.001)" fill="#36a93f" stroke="rgba(0,0,0,0)" stroke-width="1"/>
    </g>
  </g>
</svg>
