<svg id="tlumacz-migowy-icon" xmlns="http://www.w3.org/2000/svg" width="23.832" height="20" viewBox="0 0 23.832 20">
  <path id="Path_221538" data-name="Path 221538" d="M15.64,38.4c1.308,0,2.193-2.193,2.193-2.193s1.308-3.585,1.645-4.133a26.371,26.371,0,0,1,3.037-3.29c.253-.084.38.422.337.759S20.7,31.655,20.7,32.33a16.984,16.984,0,0,1,3.8-2.278s2.235-.3,2.32,0-.3.717-.759.759c-.464.084-1.308.211-1.308.211s-2.995,2.025-3.079,2.446a9.162,9.162,0,0,1,2.4-1.139,6.568,6.568,0,0,1,2.193.169S28,33.6,28,33.849c0,.3-.548.506-.97.38a8.707,8.707,0,0,0-1.645-.717,3.763,3.763,0,0,0-1.729.211A8.924,8.924,0,0,0,22.009,35.2a11.008,11.008,0,0,1,2.32-.506,6.923,6.923,0,0,1,2.32,1.265,3.381,3.381,0,0,1,.506,1.392c-.042.717.169,1.223-.253,1.392-.38.169-.844-1.012-.844-1.012a2.246,2.246,0,0,0-.337-.844,9.192,9.192,0,0,0-1.392-.844,4.32,4.32,0,0,0-2.193.844,1.957,1.957,0,0,0,1.35,3.079c1.223.169,1.35.127,1.687-.084.464-1.1,1.9-1.35,1.9-.928a6.41,6.41,0,0,1-1.1,2.151c-1.139.422-3.754,1.518-4.682,1.518a17.7,17.7,0,0,0-2.995,0,3.049,3.049,0,0,0-1.645.8S15.345,41.947,15.64,38.4Z" transform="translate(-15.597 -28.778)" fill="#222"/>
  <path id="Path_221539" data-name="Path 221539" d="M55.716,46.961c-1.308,0-2.235,2.193-2.235,2.193s-1.308,3.585-1.645,4.133a23.61,23.61,0,0,1-3.079,3.29c-.253.084-.38-.422-.337-.759.084-.337,2.151-2.067,2.193-2.784a16.984,16.984,0,0,1-3.8,2.278s-2.235.253-2.32,0c-.084-.3.3-.675.8-.759.464-.084,1.35-.211,1.35-.211s2.995-1.982,3.079-2.4a9.162,9.162,0,0,1-2.4,1.139,6.2,6.2,0,0,1-2.193-.211s-1.729-1.1-1.729-1.35c0-.3.548-.506.97-.38a8.706,8.706,0,0,0,1.645.717,3.276,3.276,0,0,0,1.729-.211,8.924,8.924,0,0,0,1.645-1.476,9.311,9.311,0,0,1-2.32.464,6.842,6.842,0,0,1-2.32-1.308,3.381,3.381,0,0,1-.506-1.392c.042-.717-.127-1.223.253-1.392.422-.169.844,1.012.844,1.012a2.246,2.246,0,0,0,.337.844,11.026,11.026,0,0,0,1.35.844,4.653,4.653,0,0,0,2.193-.8,1.951,1.951,0,0,0-1.35-3.079c-1.223-.211-1.35-.127-1.687.042-.464,1.1-1.94,1.35-1.9.928a7.334,7.334,0,0,1,1.1-2.151c1.139-.422,3.8-1.518,4.682-1.476a17.7,17.7,0,0,0,2.995,0,3.049,3.049,0,0,0,1.645-.8S56.053,43.418,55.716,46.961Z" transform="translate(-31.938 -36.587)" fill="#222"/>
</svg>
