<svg id="icon-action-remove-v1.0" xmlns="http://www.w3.org/2000/svg" xmlns:xlink="http://www.w3.org/1999/xlink" width="24" height="24" viewBox="0 0 24 24">
  <defs>
    <clipPath id="clip-path">
      <rect id="Rectangle_2268" data-name="Rectangle 2268" width="13" height="20" fill="none"/>
    </clipPath>
  </defs>
  <rect id="Rectangle_2300" data-name="Rectangle 2300" width="24" height="24" fill="none"/>
  <g id="Group_10257" data-name="Group 10257" transform="translate(-494.716 -379)">
    <g id="Group_10011" data-name="Group 10011" transform="translate(499.716 381)">
      <g id="Group_10011-2" data-name="Group 10011" clip-path="url(#clip-path)">
        <path id="Path_206397" data-name="Path 206397" d="M9.867,20a3.106,3.106,0,0,1-2.258-.943L6.678,18.1,1.124,12.69A3.753,3.753,0,0,1,0,10a3.528,3.528,0,0,1,1.279-2.75L7.617.936A3.184,3.184,0,0,1,9.853,0a3.105,3.105,0,0,1,2.221.943A3.054,3.054,0,0,1,13,3.278a3.243,3.243,0,0,1-.919,2.25L7.633,10l4.437,4.464A3.056,3.056,0,0,1,13,16.8a3.244,3.244,0,0,1-.919,2.25A3.076,3.076,0,0,1,9.867,20M9.825,1.9a1.24,1.24,0,0,0-.9.382L2.5,8.683A1.661,1.661,0,0,0,1.857,9.99V10a1.816,1.816,0,0,0,.545,1.3l6.518,6.4a1.289,1.289,0,0,0,.922.388h.015a1.248,1.248,0,0,0,.9-.382,1.361,1.361,0,0,0,.383-.951,1.169,1.169,0,0,0-.353-.919l-4.72-4.75a1.424,1.424,0,0,1-.484-.89,1.44,1.44,0,0,1,.484-1.3l4.7-4.729a1.351,1.351,0,0,0,.371-.939,1.171,1.171,0,0,0-.353-.92A1.323,1.323,0,0,0,9.825,1.9" transform="translate(0 0)" fill="#0377ba"/>
      </g>
    </g>
  </g>
</svg>
