<svg id="ilu" xmlns="http://www.w3.org/2000/svg" width="345.881" height="180" viewBox="0 0 345.881 180">
  <path id="Path_264234" data-name="Path 264234" d="M172.94,0c95.512,0,172.94,3.923,172.94,8.761s-77.428,8.761-172.94,8.761S0,13.6,0,8.761,77.428,0,172.94,0Z" transform="translate(0 162.477)" fill="#1453bf"/>
  <path id="Path_262507" data-name="Path 262507" d="M1699.944,170.807H1596.215c-10.383,0-18.8-8.018-18.8-17.91V67.345a64.187,64.187,0,0,1,5.557-26.206,67,67,0,0,1,15.14-21.394A70.708,70.708,0,0,1,1620.57,5.322c7.514-3.027,5.717-4.862,13.862-5.286,1.307-.068,12.329-.009,13.647-.009a73.259,73.259,0,0,1,27.509,5.295,70.706,70.706,0,0,1,22.458,14.422,67,67,0,0,1,15.14,21.394,64.181,64.181,0,0,1,5.558,26.206V152.9c0,9.891-8.417,17.91-18.8,17.91M1599.5,70.913h97.164V67.345c0-25.519-21.794-46.281-48.582-46.281S1599.5,41.826,1599.5,67.345Z" transform="translate(-1397.678 -0.004)" fill="#1453bf"/>
  <path id="Path_262508" data-name="Path 262508" d="M1596.737,170.989H1493.008c-10.383,0-18.8-8.018-18.8-17.91V67.527a64.183,64.183,0,0,1,5.558-26.206,67,67,0,0,1,15.14-21.394A70.706,70.706,0,0,1,1517.363,5.5a74.114,74.114,0,0,1,55.019,0,70.711,70.711,0,0,1,22.458,14.422,67,67,0,0,1,15.139,21.394,64.175,64.175,0,0,1,5.558,26.206v85.552c0,9.891-8.417,17.91-18.8,17.91M1496.291,71.095h97.164V67.527c0-25.519-21.794-46.281-48.582-46.281s-48.582,20.761-48.582,46.281Z" transform="translate(-1306.982 -0.185)" fill="#1a73de"/>
  <path id="Path_262509" data-name="Path 262509" d="M2002.4,840.814a8.705,8.705,0,0,0-2.123-5.707,8.736,8.736,0,0,0-13.241,0,8.742,8.742,0,0,0,4.01,14.054V862.4c0,1.068,1.169,1.934,2.611,1.934s2.61-.866,2.61-1.934V849.16a8.748,8.748,0,0,0,6.133-8.347" transform="translate(-1751.068 -736.668)" fill="#1453bf"/>
  <path id="Path_262510" data-name="Path 262510" d="M1045.744,807.237c-.166,1.123-1.448,2.422-2.815,3.4a13.537,13.537,0,0,0-2.584,2.664c-.193.221-.312.343-.312.343l-1.572-1.828a.435.435,0,0,0,.072-.069,12.751,12.751,0,0,0,1.837-2.416,5.106,5.106,0,0,1,3.123-2.737,7.609,7.609,0,0,1,2.251.647" transform="translate(-913.762 -713.371)" fill="#ffb27d"/>
  <path id="Path_262511" data-name="Path 262511" d="M420.027,1001.044l1.062.862s2.905-1.042,3.561,2.41c0,0,.175,1.471-.757,1.474a18.664,18.664,0,0,0-1.867-.122,2.388,2.388,0,0,1-2.607-1.728l-.631-.908Z" transform="translate(-363.215 -885.281)" fill="#ea8e50"/>
  <path id="Path_262512" data-name="Path 262512" d="M199.16,855.638a2.171,2.171,0,0,0,.779-1.539s-9.811-8.033-10.806-8.687c-.678-.446-7.514-6.995-11.281-10.757-1.812-1.81-3.75-1.186-6.125-.5l-1.955.561a3.27,3.27,0,0,0-1.038,5.584c5.456,4.519,14.531,9.6,16.23,10.67,4.216,2.652,12.467,5.8,12.467,5.8a5.23,5.23,0,0,0,1.729-1.132" transform="translate(-142.467 -737.609)" fill="#992525"/>
  <path id="Path_262513" data-name="Path 262513" d="M497.654,1423.334a7.4,7.4,0,0,0,6.029.841s2.942-.67,3.587.8c0,0-4.511,2.292-5.653,2.919a13.664,13.664,0,0,0-2.393,1.795,1.183,1.183,0,0,1-1.713-.132c-.2-.244-.426-.535-.674-.872-.7-.943-2.316-3.987-2.316-3.987Z" transform="translate(-432.789 -1259.248)" fill="#233862"/>
  <path id="Path_262514" data-name="Path 262514" d="M265.841,1107.535s-1.45,3.343-4.8,2.728a93.378,93.378,0,0,1-11.513-11.5,26.037,26.037,0,0,1-3.578-5.591c-3.106-7.192-11.49-17.919-16.821-23.355l13.337-4.825s4.272,8.593,9.956,19.149c4.1,7.606,8.924,16.23,13.416,23.393" transform="translate(-196.553 -944.357)" fill="#1a73de"/>
  <path id="Path_262515" data-name="Path 262515" d="M252.424,1084.143l-2.894,14.622a26.026,26.026,0,0,1-3.578-5.591c-3.106-7.192-11.49-17.919-16.821-23.355l13.337-4.825s4.272,8.594,9.956,19.149" transform="translate(-196.555 -944.357)" fill="#233862"/>
  <path id="Path_262516" data-name="Path 262516" d="M296.555,1428.737s-.145,2.667,3.088,3.023c0,0,1.848.01,1.853,1.708l-9.4.03a7.308,7.308,0,0,1-.339-2.152,16.8,16.8,0,0,1,1.092-4.071Z" transform="translate(-251.586 -1262.715)" fill="#233862"/>
  <path id="Path_262517" data-name="Path 262517" d="M209.15,1060.705s5.941,6.528,9.713,18.29c2.052,6.4-3.761,22.489-4.894,28.079a17.819,17.819,0,0,1-6.566-.7,129.35,129.35,0,0,1,1.357-20.446c.873-4.98-7.823-10.652-11.622-19.651-2.585-6.122.56-6.019,4.424-6.166Z" transform="translate(-167.607 -940.068)" fill="#1a73de"/>
  <path id="Path_262518" data-name="Path 262518" d="M173.476,766.374c-3.306,1.867-10.073.145-10.073.145a9.427,9.427,0,0,0,1.5-8.2l2.6,1.318,2.788,1.416a23.126,23.126,0,0,1,.306,2.5c.032.413.061.875.08,1.38a8.67,8.67,0,0,1,2.8,1.444" transform="translate(-138.797 -670.724)" fill="#ffb07b"/>
  <path id="Path_262519" data-name="Path 262519" d="M167.548,842.074c0,.581-.669.859-.811.888-1.333.244-5.056,1.692-8.41,2.024a26.888,26.888,0,0,1-8.326-.563c-.382-.077-1.277-.318-1.34-.683-.079-.4-11.11-22.487-2.535-31.974.2-.223,1.894.178,3.442.546a6.354,6.354,0,0,0,3.912-.32l1.452.764c1.783.993,5.156,4.523,5.551,7.292.2,1.408,1.006,2.451,1.239,3.69q.13.687.265,1.342.263,1.283.543,2.444c.5,2.094,1.037,3.9,1.559,5.455.556,1.654,1.1,3.03,1.589,4.18.632,1.492,1.166,2.608,1.5,3.462a4.264,4.264,0,0,1,.371,1.455" transform="translate(-120.746 -718.672)" fill="#bc3f3f"/>
  <path id="Path_262520" data-name="Path 262520" d="M191.462,894.949A43.339,43.339,0,0,1,170.5,873.527s12.651,4.667,15.771,5.882q.263,1.284.543,2.444c.5,2.094,1.037,3.9,1.559,5.455.556,1.654,1.1,3.03,1.589,4.18.632,1.492,1.166,2.608,1.5,3.461" transform="translate(-145.033 -773)" fill="#992525"/>
  <path id="Path_262521" data-name="Path 262521" d="M335.626,600.614h-8.6a14.971,14.971,0,0,1-14.954-14.954V557.652A14.971,14.971,0,0,1,327.03,542.7h8.6a14.971,14.971,0,0,1,14.954,14.954V585.66a14.971,14.971,0,0,1-14.954,14.954m-8.6-49.083a6.128,6.128,0,0,0-6.121,6.121V585.66a6.128,6.128,0,0,0,6.121,6.121h8.6a6.128,6.128,0,0,0,6.121-6.121V557.652a6.128,6.128,0,0,0-6.121-6.121Z" transform="translate(-269.441 -481.177)" fill="#ffa000"/>
  <path id="Path_262522" data-name="Path 262522" d="M678.5,749.3H599.675V738.983H678.5a5.159,5.159,0,1,1,0,10.318" transform="translate(-526.715 -653.654)" fill="#ffa000"/>
  <path id="Path_262523" data-name="Path 262523" d="M1172.39,831.3h0a4.14,4.14,0,0,1-4.14-4.14V806.944h8.28v20.219a4.14,4.14,0,0,1-4.14,4.14" transform="translate(-1028.563 -714.168)" fill="#ffa000"/>
  <path id="Path_262524" data-name="Path 262524" d="M413.444,1014.523l1.345.493a2.878,2.878,0,0,1,4.372,1.194s.607,1.354-.354,1.647-.611.017-1.961.467a2.571,2.571,0,0,1-3.19-.839l-.915-.671Z" transform="translate(-357.904 -897.101)" fill="#ffb07b"/>
  <path id="Path_262525" data-name="Path 262525" d="M186.538,862.088c.5-1.3.725-1.886.725-1.886s-10.167-8.287-11.2-9c-.706-.484-7.734-5.738-11.16-9.832a7.171,7.171,0,0,0-6.971-2.416l-2.134.448a3.174,3.174,0,0,0-1.415,5.516c5.63,4.827,15.127,10.425,16.9,11.59,4.4,2.891,14.118,6.941,14.118,6.941a2.5,2.5,0,0,0,1.144-1.364" transform="translate(-129.887 -742.373)" fill="#bc3f3f"/>
  <path id="Path_262526" data-name="Path 262526" d="M183.81,773.1a6.958,6.958,0,0,1-5.365-2.5,25.777,25.777,0,0,0,2.271-1.413L183.5,770.6a23.146,23.146,0,0,1,.306,2.5" transform="translate(-152.016 -680.219)" fill="#ea8e50"/>
  <path id="Path_262527" data-name="Path 262527" d="M163.071,713.846s-4.925,3.535-7.079.433-4.24-4.734-1.187-7.121,4.493-1.633,5.464-.773,4.028,6.462,2.8,7.461" transform="translate(-129.887 -624.08)" fill="#ffb07b"/>
  <path id="Path_262528" data-name="Path 262528" d="M128.578,674.592a7.931,7.931,0,0,0-.574-2.031s-.309,1.28-2.649,1.1-6.049.23-7.285,2.9q-.118.255-.211.523a6.175,6.175,0,0,1-.278-1.477,4.553,4.553,0,0,0,0,2.584h0c-.007.042-.012.084-.018.126a5.21,5.21,0,0,0-.95,1.794,1.626,1.626,0,0,1,.875-.778c-.01,2.075.831,4.1,2.308,4.707,2.16.883,2.142.21,4.314,1.65,0,0,.583-.723.185-1.208s-1.9-1.192-1.06-1.9,1.148.088,1.457-.4-1.236-1.9.75-3.223,3.311-3.179,3.135-4.371" transform="translate(-97.676 -594.961)" fill="#233862"/>
  <path id="Path_262529" data-name="Path 262529" d="M818.694,1046.886l-1.815.676s-7.882-10.932-8.853-20.55a14.6,14.6,0,0,1,.259-4.917s-.077-.44-.212-1.218c-.062-.363-.139-.8-.227-1.3-.256-1.468-.609-3.477-1.012-5.765-.927-5.264-2.129-11.993-3.062-16.94l.489-.157,5.291-1.707,1.093-3.473,3.939-1.037s.88,1.721,1.667,9.854c.145,1.067.277,2.243.376,3.519a69.641,69.641,0,0,1-.375,14.245q-.271,2.12-.692,4.372a19.515,19.515,0,0,0-.151,4.317c.4,7.863,3.283,20.082,3.283,20.082" transform="translate(-706.326 -878.894)" fill="#bc3f3f"/>
  <path id="Path_262530" data-name="Path 262530" d="M816.629,1003.869l-8.555,17.007c-.062-.363-.139-.8-.227-1.3-.256-1.468-.609-3.477-1.012-5.765-.927-5.264-2.129-11.993-3.062-16.94l.489-.157,5.291-1.707,1.093-3.473,3.939-1.037s.88,1.721,1.667,9.854c.145,1.067.277,2.243.376,3.519" transform="translate(-706.299 -876.853)" fill="#992525"/>
  <path id="Path_262531" data-name="Path 262531" d="M755.561,978.342l-.2-1.7c-3.318.881-12.183-2.463-12.183-2.463s-3.214,2.825-2.792,9.6c.206,3.306.582,17.352.975,21.509.142,1.506.267,2.578.317,3.007a.008.008,0,0,1,0,0,.594.594,0,0,1-.1.368,19.512,19.512,0,0,0-1.45,3.05c-3.857,10.278.594,22.935.594,22.935l1.155-.465s2.533-14.086,4.591-20.309a12.328,12.328,0,0,1,.991-2.38,26.892,26.892,0,0,0,2.479-6.611,162.66,162.66,0,0,0,3.335-17.537c.105,0,2.281-9.007,2.281-9.007" transform="translate(-648.68 -864.558)" fill="#bc3f3f"/>
  <path id="Path_262532" data-name="Path 262532" d="M937.661,806.99a9.233,9.233,0,0,1,2.953,2.166s-5.658,9.869-8.915,11.3c-1.788.788-7.382-5.189-8.538-8.538-.282-.819.761-3.557.419-4.133a5.738,5.738,0,0,1-.761-2.141,1.02,1.02,0,0,1-.035-.3,4.744,4.744,0,0,1,.1-1.711c.129-.333.5-.476,1.04-.468h.192c2.93,1.724,6.781,10.193,7.416,10.392,1.656-2.1,6.128-6.569,6.128-6.569" transform="translate(-811.605 -710.619)" fill="#1a73de"/>
  <path id="Path_262533" data-name="Path 262533" d="M850.912,749.107a10.331,10.331,0,0,1-3.821.895c-5.7.313-7-4.688-7.235-8.006a4.783,4.783,0,0,1,1.957-.247c.4.022.827.064,1.175.107.7-.365,1.951-2.135,2.676-5.1l.246.114,4.116,1.935s-.437,1.339-.76,2.621a5.217,5.217,0,0,0-.281,2.243c.324.132.518.215.518.215a.011.011,0,0,0,0,0,28.257,28.257,0,0,1,1.407,5.217" transform="translate(-738.188 -651.76)" fill="#ffb27d"/>
  <path id="Path_262534" data-name="Path 262534" d="M784.736,788.774c-.043.114-.091.225-.142.339-1.445,3.111-4.119,16-4.119,16,.381,2.317-17.414-.455-17.46-2.565-.627-2.237,2.224-5.831,3.831-7.635a5.111,5.111,0,0,0,.539-.726,5.055,5.055,0,0,0,.729-2.127c.316-2.991-.859-9.888-.542-11.221.124-.521,2.48,2.46,2.762,2.161a1.659,1.659,0,0,0,.526-1.036,5.525,5.525,0,0,0-.022-.868c-.013-.138-.031-.276-.052-.413-.222-1.448-2.99-.83-2.99-.83,1.014-2.442,6.417-2.247,6.416-2.181s0,.151,0,.4c-.009.994,0,3.547.319,4.03.4.6,7.689,3.237,8.074,2.421s-.659-4.565-.7-4.707a.013.013,0,0,1,0,0,14.462,14.462,0,0,1,1.769.924c.915,1.835,2.2,5.021,1.067,8.039" transform="translate(-670.299 -688.351)" fill="#1a73de"/>
  <path id="Path_262535" data-name="Path 262535" d="M857.745,625.628c-.009-.247-.2-2.912-4.26-3.051,0,0,2,.238,2.341,1.116,0,0-1.359-1.084-2.466-.736s-1.757,2.288-1.763,2.925.608,2.694,1.311,2.869a2.14,2.14,0,0,0,.851,0,9.57,9.57,0,0,0-.545.973c-1.62,3.325.051,6.574,1.422,6.215.88-.23,1.128,1.27,1.128,1.27l8.543-6.917s-3.138-6.493-6.562-4.666" transform="translate(-748.594 -550.775)" fill="#bc3f3f"/>
  <path id="Path_262536" data-name="Path 262536" d="M893.9,739.641s-.437,1.338-.76,2.621c-2.406-.671-3.136-3.2-3.356-4.556Z" transform="translate(-782.242 -652.39)" fill="#ed985f"/>
  <path id="Path_262537" data-name="Path 262537" d="M891.937,689.48s-5.756-1.332-4.871-4.9.738-6.149,4.45-5.449,4.086,2.238,4.081,3.5-2.14,7.105-3.66,6.851" transform="translate(-779.816 -600.613)" fill="#ffb27d"/>
  <path id="Path_262538" data-name="Path 262538" d="M885.435,675.885c-.619-1.294-1.347-1.226-1.8-1a4.129,4.129,0,0,0-5.357-.458,7.03,7.03,0,0,1-3.234,3.474s.884.905,3.447.885a4.218,4.218,0,0,0,2.286-.861,13.779,13.779,0,0,1-3,2.238c3.208-.614,5.359-4.328,5.58-4.722a4.629,4.629,0,0,1,.835,1.977c.06.98-.278,2.884.284,2.956,0,0,1.891-2.553.963-4.494" transform="translate(-769.295 -595.781)" fill="#bc3f3f"/>
  <path id="Path_262539" data-name="Path 262539" d="M745.21,1443.367h-9.14a5.016,5.016,0,0,1,.258-2.45c.458-1.014,1.174-1.475,1-2.7a3.293,3.293,0,0,0,2.849,1.09,10.022,10.022,0,0,0,1.586,2.056c.6.429,3.261.276,3.445,2.006" transform="translate(-646.332 -1272.328)" fill="#233862"/>
  <path id="Path_262540" data-name="Path 262540" d="M906.73,1446.338h-9.14a3.8,3.8,0,0,1,.258-2.45,1.761,1.761,0,0,0-.066-2.1,3.555,3.555,0,0,0,1.539.29,3.216,3.216,0,0,0,1.359-.478,32.932,32.932,0,0,0,2.6,2.736c.6.429,3.261.276,3.445,2.006" transform="translate(-789.133 -1275.299)" fill="#233862"/>
  <path id="Path_262541" data-name="Path 262541" d="M1076.216,784.975h13.912l-.773-5.4-12.421.5Z" transform="translate(-947.271 -689.441)" fill="#f99746"/>
  <path id="Path_262542" data-name="Path 262542" d="M1049.483,736.425c-.649.646-.633,2.717-2,3.692a13.533,13.533,0,0,0-2.584,2.664c-.193.221-.312.343-.312.343l-1.571-1.828a.435.435,0,0,0,.072-.069,12.767,12.767,0,0,0,1.838-2.416,5.105,5.105,0,0,1,3.122-2.737,2.646,2.646,0,0,1,1.436.352" transform="translate(-917.779 -651.006)" fill="#ffb27d"/>
  <path id="Path_262543" data-name="Path 262543" d="M831.51,767.306l2.319,2.595s-6.2,5.394-7.489,6.514a14.465,14.465,0,0,1-2.495,1.786,1.652,1.652,0,0,1-.216.1c-1.819.8-5.747.708-9.672.127-.543-.079-1.078-.17-1.6-.254a37.53,37.53,0,0,1-5.294-1.287,14.706,14.706,0,0,1-2.332-.937,6.028,6.028,0,0,1-.611-.342c-3.07-1.839-2.921-3.547-2.863-4.16a2.113,2.113,0,0,1,1.525-1.755c2.436-.791,10.607,2.359,11.81,2.586.722.153,2.6.818,3.234.934a18.915,18.915,0,0,0,2.894.358,6.656,6.656,0,0,0,2.169-.687c1.648-.721,8.623-5.574,8.623-5.574" transform="translate(-704.338 -678.742)" fill="#1a73de"/>
  <path id="Path_262544" data-name="Path 262544" d="M1056.922,811.538a2.063,2.063,0,0,1-.212-.831,4.732,4.732,0,0,1,1.082-1.611c.22-.152.511-.524.58-.276a4.356,4.356,0,0,1-.649,2.056,1.994,1.994,0,0,1-.8.662" transform="translate(-929.809 -715.162)" fill="#ffb27d"/>
  <path id="Path_262545" data-name="Path 262545" d="M2194.454,571.085a12.665,12.665,0,0,0,4.4,4.7h10.2s-16.1-7.294-14.608-4.7" transform="translate(-1936.221 -504.56)" fill="#ed7d2b"/>
  <path id="Path_262546" data-name="Path 262546" d="M2197.524,730.54c.265.3.495.288.363.652,0,0-.059.18-.06.182a4.417,4.417,0,0,1-1.637,1.895c-.119.1-.24.177-.334.258-.024.021-.189.054-.212.076s-.164.317-.182.332a28.866,28.866,0,0,0-2.257,2.2c-1.784,1.857-1.732,1.665-2.081,1.5-.3-.144-.418-.49.248-1.6.032-.053.063-.108.1-.161.088-.147.176-.3.265-.444.78-1.332.58-1.957.395-3.939-.15-1.611-2.505-9-2.505-9l3.419-.589s1.029,5.882,2.164,6.789c.606.483,1.286.489,1.869.847.041.025.082.05.121.077.331.22.063.622.33.928" transform="translate(-1931.803 -638.677)" fill="#ffb27d"/>
  <path id="Path_262547" data-name="Path 262547" d="M2203.212,785.7a.943.943,0,0,1,.168,1.009.008.008,0,0,1,0,.005,7.271,7.271,0,0,1-1.984,2.167c-.119.1-.223.188-.315.272-.024.021-.049.042-.071.064l-.055.05c-.871.8-.543.987-2.109,2.616-1.784,1.856-3.012,1.89-3.361,1.721-.3-.144.3-1.129.97-2.235a7.6,7.6,0,0,0,3.18-2.344c1.074-1.371,1.791-3.133,2.522-4.153.041.025.082.051.122.077a4.479,4.479,0,0,1,.936.752" transform="translate(-1936.906 -694.207)" fill="#bc3f3f"/>
  <path id="Path_262548" data-name="Path 262548" d="M1962.324,720.483c-.211,1.055-.9.759-2.576.349s-1.291-.008-3.683-.273-2.61-.644-2.683-1c-.065-.316.435-.529,1.7-.675l.48-.057c1.431-.18,2.479-1.1,3.779-1.862,1.231-.718,3.069-3.646,3.069-3.646l3.281.26s-1.721,2.615-2.388,3.751a3.968,3.968,0,0,0-.322,2.236c.025.371-.586.546-.66.918" transform="translate(-1723.01 -630.898)" fill="#ffb27d"/>
  <path id="Path_262549" data-name="Path 262549" d="M1954.642,761.49c-1.681-.411-1.281.078-3.673-.187s-3.117-1.157-3.19-1.512c-.065-.316,1.117-.427,2.385-.573l.012.024a6.744,6.744,0,0,0,3.426,1.065c1.623.039,3.342-.426,4.462-.407a4.191,4.191,0,0,1-.025,1.122c-.212,1.055-1.716.879-3.4.469" transform="translate(-1717.99 -671.369)" fill="#bc3f3f"/>
  <path id="Path_262550" data-name="Path 262550" d="M2136.1,562.977l3.067,8.252,4,10.775a6.489,6.489,0,0,0,2.127-.194,9.223,9.223,0,0,0,2.057-1s-1.111-11.569-3.185-18.21a11.813,11.813,0,0,0-1.785-3.86c-3.215-3.8-6.284,4.239-6.284,4.239" transform="translate(-1884.574 -493.597)" fill="#ed7d2b"/>
  <path id="Path_262551" data-name="Path 262551" d="M2030.385,481.056c2.009-.648,7.739.184,13.5,1.311l1.2-1.988,12.433-.971s4.1,9.1,1.857,14.9a2.593,2.593,0,0,1-2.326,1.412h-9.762c-6.183,0-13.086-4.25-13.979-4.429-1.462-.292-2.046,2.631-3.508,5.7s-13.739,13.592-13.739,13.592a10.807,10.807,0,0,1-2.666-.274,2.626,2.626,0,0,1-1.145-.723s13.6-27.065,18.135-28.527" transform="translate(-1776.383 -424.42)" fill="#ffa000"/>
  <path id="Path_262552" data-name="Path 262552" d="M2260.249,200.341c4.427,2.438,13.409,7.492,13.456,7.459,0,0,3.3,1.244,5.175,0,3.122-2.073,4.8-7.653-.913-12.454-2.847-2.395-4.87-2.978-5.177-6.8-.167-2.074-3-8.921-7.714-8.287a7.185,7.185,0,0,1-1.187.078,4.407,4.407,0,0,0-2.391.617c-2.667,1.588-7.885,18.445-1.248,19.388" transform="translate(-1992.029 -158.365)" fill="#343434"/>
  <path id="Path_262553" data-name="Path 262553" d="M2310.181,278.628a5.855,5.855,0,0,0,3.649.112c1.382-.611,2.43-2.886,2.409-2.887-.629-.029-1.32-.579-1.851-4.187l-.269.1-4.5,1.62s.327,1.445.537,2.82c.177,1.155.273,2.262.027,2.425" transform="translate(-2037.857 -240.267)" fill="#ffb27d"/>
  <path id="Path_262554" data-name="Path 262554" d="M2309.617,274.079s.327,1.445.537,2.82c2.586-.465,3.6-3.042,3.965-4.441Z" transform="translate(-2037.781 -239.424)" fill="#ed975d"/>
  <path id="Path_262555" data-name="Path 262555" d="M2281.163,219.108s6.16-.827,5.587-4.656-.166-6.514-4.124-6.148-4.5,1.941-4.621,3.266,1.54,7.654,3.158,7.538" transform="translate(-2009.977 -183.015)" fill="#ffb27d"/>
  <path id="Path_262556" data-name="Path 262556" d="M2279.9,207.018s3.944,3.4,6.626,3.673,3.7-.587,3.7-.587a10.48,10.48,0,0,1-2.533-3.432,1.886,1.886,0,0,0-1.555-1.112c-1.916-.165-5.547-.241-6.237,1.458" transform="translate(-2011.717 -180.562)" fill="#343434"/>
  <path id="Path_262557" data-name="Path 262557" d="M2277.147,210.321a9.7,9.7,0,0,0-1.734,2.222,7.451,7.451,0,0,0-.2,3.964s-2.056-4-.893-5.939c1.235-2.059,2.829-.247,2.829-.247" transform="translate(-2006.201 -184.172)" fill="#343434"/>
  <path id="Path_262558" data-name="Path 262558" d="M2271.477,317c.186,12.471.051,9.865,1.415,11.048a5.239,5.239,0,0,0,2.469.535c3.824.254,10.546-.376,10.8-1.083.883-2.445.26-3.2,1-6.949.076-.4.172-.829.283-1.3.614-2.571,1.211-3.446-.966-7.577-1.974-3.742-4.024-6.779-4.209-6.669-5.208,3.092-5.628.493-5.628.493s-5.252,5.417-5.161,11.5" transform="translate(-2004.5 -269.926)" fill="#bc3f3f"/>
  <path id="Path_262559" data-name="Path 262559" d="M2161.4,606.594l4,10.775a6.483,6.483,0,0,0,2.126-.194,9.214,9.214,0,0,0,2.057-1s-1.111-11.569-3.185-18.21Z" transform="translate(-1906.836 -529.101)" fill="#ffa000"/>
  <path id="Path_262560" data-name="Path 262560" d="M2239.245,309.084s-5.359.909-5.988,3.216l-4.333,15.872s2.725.489,3.983-.769,4.379-11.677,4.379-11.677Z" transform="translate(-1966.635 -273.488)" fill="#bc3f3f"/>
  <path id="Path_262561" data-name="Path 262561" d="M2303.522,403.619c3.824.254,10.546-.376,10.8-1.083.882-2.445.26-3.205,1-6.949l-1.844-5.193s.3,5.783-1.4,7.3-6.982,2.936-7.812,4.207a4.651,4.651,0,0,0-.739,1.713" transform="translate(-2032.66 -345.355)" fill="#992525"/>
  <path id="Path_262562" data-name="Path 262562" d="M2291.247,475.175s-3.773-.84-4.382-.505a8.872,8.872,0,0,0-2.283,1.978c-.186.424,1.356-.322,1.857-.456a4.465,4.465,0,0,1,1.6.351,5.324,5.324,0,0,0,2.871.288Z" transform="translate(-2015.707 -419.674)" fill="#ffb27d"/>
  <path id="Path_262563" data-name="Path 262563" d="M2337.768,305s5.066.312,6.82,2.758c2.468,3.443,7.365,18.116,4.559,20.073-3.161,2.2-14.384.577-14.384.577a4.559,4.559,0,0,1,.146-2.591c.52-.844,8.964-2.209,9.354-2.6s-4.873-7.6-4.873-8.77-1.622-9.449-1.622-9.449" transform="translate(-2060.311 -269.929)" fill="#bc3f3f"/>
  <path id="Path_262564" data-name="Path 262564" d="M2291.318,483.9a7.315,7.315,0,0,1-1.05,1.141.772.772,0,0,1-.426.091l.532-.959Z" transform="translate(-2020.188 -427.888)" fill="#ffb27d"/>
  <path id="Path_262565" data-name="Path 262565" d="M2286.865,475.241l-2.3,1.116a.411.411,0,0,0,.381.147,5.485,5.485,0,0,0,1-.274Z" transform="translate(-2015.551 -420.234)" fill="#ffb27d"/>
  <path id="Path_262566" data-name="Path 262566" d="M2121.961,407.634h-18.179l-5.469-13.6h18.152Z" transform="translate(-1851.596 -348.578)" fill="#555"/>
  <path id="Path_262567" data-name="Path 262567" d="M2141.661,501.828h24.006v.53h-23.793Z" transform="translate(-1889.957 -443.732)" fill="#343434"/>
  <path id="Path_262568" data-name="Path 262568" d="M2181.014,443.843a.63.63,0,0,1,.617-.866,1.241,1.241,0,0,1,1.114.866.63.63,0,0,1-.617.866,1.24,1.24,0,0,1-1.114-.866" transform="translate(-1923.938 -391.711)" fill="#fff"/>
</svg>
