<svg id="logo_login" xmlns="http://www.w3.org/2000/svg" width="168.828" height="48.335" viewBox="0 0 168.828 48.335">
  <path id="Path_206597" data-name="Path 206597" d="M10.3,48.658V15.5h2.307V46.436h15.81v2.222Z" transform="translate(-10.129 -12.167)"/>
  <path id="Path_206598" data-name="Path 206598" d="M10.271,48.629h.256v-32.9h1.88V46.664H28.132v1.709H10.271v.256h0V48.8H28.559V46.236H12.835V15.3H10.1V48.8h.171Z" transform="translate(-10.1 -12.138)" fill="#1b1b1b"/>
  <path id="Path_206599" data-name="Path 206599" d="M57.607,37.885c0,4.092-.94,7.313-2.906,9.577a10.111,10.111,0,0,1-8.033,3.483,10.483,10.483,0,0,1-5.726-1.567,10.267,10.267,0,0,1-3.76-4.527A17.284,17.284,0,0,1,35.9,37.972c0-4.092.94-7.313,2.906-9.577A10.049,10.049,0,0,1,46.839,25a9.566,9.566,0,0,1,7.948,3.483C56.667,30.659,57.607,33.88,57.607,37.885Zm-19.4,0a13.336,13.336,0,0,0,2.222,8.1,7.488,7.488,0,0,0,6.324,2.873,7.6,7.6,0,0,0,6.324-2.873c1.453-1.915,2.222-4.614,2.222-8.1s-.769-6.181-2.222-8.1a7.6,7.6,0,0,0-6.324-2.873,7.6,7.6,0,0,0-6.324,2.873C38.891,31.7,38.207,34.4,38.207,37.885Z" transform="translate(-13.851 -13.548)"/>
  <path id="Path_206600" data-name="Path 206600" d="M57.549,37.841h-.171c0,4.09-.94,7.223-2.906,9.486a9.7,9.7,0,0,1-7.862,3.394,9.717,9.717,0,0,1-5.555-1.566,9.856,9.856,0,0,1-3.675-4.438A16.546,16.546,0,0,1,36.1,37.928c0-4.09.94-7.223,2.906-9.4,1.88-2.263,4.529-3.307,7.862-3.394a9.526,9.526,0,0,1,7.777,3.394q2.82,3.394,2.82,9.4h.256c0-4.09-.94-7.31-2.906-9.66A10.086,10.086,0,0,0,46.7,24.7a10.314,10.314,0,0,0-8.2,3.481c-1.966,2.35-2.991,5.57-2.991,9.747a16.3,16.3,0,0,0,1.367,6.962,10.121,10.121,0,0,0,9.657,6.353c3.5,0,6.239-1.131,8.2-3.568,1.966-2.35,2.991-5.57,2.991-9.747h-.171Zm-19.4,0h-.171c0,3.481.769,6.179,2.307,8.18a7.65,7.65,0,0,0,6.495,2.959,7.756,7.756,0,0,0,6.495-2.959c1.538-2,2.307-4.7,2.307-8.18s-.769-6.266-2.307-8.18A7.756,7.756,0,0,0,46.781,26.7a7.756,7.756,0,0,0-6.495,2.959c-1.538,1.915-2.222,4.7-2.222,8.18h.256c0-3.481.769-6.092,2.136-7.919a7.33,7.33,0,0,1,6.153-2.785,7.441,7.441,0,0,1,6.153,2.785c1.453,1.828,2.222,4.525,2.222,7.919s-.769,6.092-2.222,7.919a7.208,7.208,0,0,1-6.153,2.785,7.441,7.441,0,0,1-6.153-2.785,12.771,12.771,0,0,1-2.222-7.919h-.085Z" transform="translate(-13.793 -13.505)" fill="#1b1b1b"/>
  <path id="Path_206601" data-name="Path 206601" d="M87.99,25.327v1.538l-5.128.342a8.772,8.772,0,0,1,2.051,5.555,7.243,7.243,0,0,1-2.393,5.726A8.907,8.907,0,0,1,76.2,40.71a14.517,14.517,0,0,1-2.393-.171,6.64,6.64,0,0,0-2.051,1.624,3.355,3.355,0,0,0-.684,2.137,1.81,1.81,0,0,0,.855,1.709,6.471,6.471,0,0,0,2.991.513h4.273a9.946,9.946,0,0,1,6.153,1.624,5.564,5.564,0,0,1,2.136,4.786,6.693,6.693,0,0,1-3.162,5.982c-2.137,1.453-5.128,2.136-8.973,2.136a12.381,12.381,0,0,1-7.179-1.795A5.689,5.689,0,0,1,65.6,54.3a5.888,5.888,0,0,1,1.538-4.188A8.287,8.287,0,0,1,71.411,47.8a4.2,4.2,0,0,1-1.795-1.367,3.424,3.424,0,0,1-.684-1.966c0-1.624,1.026-3.077,3.162-4.358a7.078,7.078,0,0,1-3.333-2.735,9.162,9.162,0,0,1-1.111-4.358,7.724,7.724,0,0,1,2.307-5.9A8.907,8.907,0,0,1,76.282,24.9a10.716,10.716,0,0,1,3.76.513H87.99Zm-19.912,28.8c0,3.418,2.478,5.042,7.52,5.042,6.495,0,9.657-2.051,9.657-6.153a3.654,3.654,0,0,0-1.538-3.247,9.123,9.123,0,0,0-4.957-1.026H74.744Q68.078,48.871,68.078,54.127Zm1.88-21.109a5.855,5.855,0,0,0,1.709,4.444A6.841,6.841,0,0,0,76.282,39a6.627,6.627,0,0,0,4.7-1.538,5.885,5.885,0,0,0,1.624-4.529,6.07,6.07,0,0,0-1.709-4.7,6.771,6.771,0,0,0-4.7-1.538A6.259,6.259,0,0,0,71.582,28.4,6.087,6.087,0,0,0,69.958,33.019Z" transform="translate(-17.623 -13.056)"/>
  <path id="Path_206602" data-name="Path 206602" d="M87.961,25.284H87.79v1.367l-5.3.342.256.342A8.289,8.289,0,0,1,84.714,32.8a7.408,7.408,0,0,1-2.307,5.64,8.649,8.649,0,0,1-6.239,2.136,12.544,12.544,0,0,1-2.307-.171H73.69a6.284,6.284,0,0,0-2.137,1.709,3.454,3.454,0,0,0-.769,2.136,1.963,1.963,0,0,0,1.026,1.88,5.943,5.943,0,0,0,3.077.6h4.273a9.8,9.8,0,0,1,5.982,1.538,5.4,5.4,0,0,1,2.051,4.615A6.519,6.519,0,0,1,84.116,58.7c-2.051,1.367-5.042,2.051-8.888,2.051a12.787,12.787,0,0,1-7.093-1.709,5.621,5.621,0,0,1-2.478-4.786,5.822,5.822,0,0,1,1.538-4.1,7.924,7.924,0,0,1,4.188-2.222l.684-.171-.6-.256a5.284,5.284,0,0,1-1.709-1.282,2.913,2.913,0,0,1-.6-1.88c0-1.538.94-2.906,3.077-4.188l.342-.256-.427-.171A6.785,6.785,0,0,1,68.9,36.992a7.739,7.739,0,0,1-1.2-4.188,7.659,7.659,0,0,1,2.307-5.811,8.572,8.572,0,0,1,6.153-2.136,13.054,13.054,0,0,1,3.675.427h8.119v-.171H80.1v.171l.085-.171a11.6,11.6,0,0,0-3.846-.513,9.009,9.009,0,0,0-6.495,2.307,7.984,7.984,0,0,0-2.393,6.068,8.642,8.642,0,0,0,1.2,4.444,7.379,7.379,0,0,0,3.418,2.82l.085-.171-.085-.171c-2.137,1.282-3.248,2.82-3.248,4.529a3.74,3.74,0,0,0,.684,2.136,4.64,4.64,0,0,0,1.88,1.453l.085-.171-.085-.171a8.071,8.071,0,0,0-4.358,2.393A6.138,6.138,0,0,0,65.4,54.425a5.763,5.763,0,0,0,2.649,5.128c1.709,1.2,4.188,1.795,7.35,1.795,3.931,0,7.008-.684,9.144-2.136a7.05,7.05,0,0,0,3.247-6.153A5.952,5.952,0,0,0,85.569,48.1a10.222,10.222,0,0,0-6.239-1.624H75.057a5.843,5.843,0,0,1-2.906-.513,1.634,1.634,0,0,1-.769-1.538,3.176,3.176,0,0,1,.684-1.88,6.432,6.432,0,0,1,1.966-1.624l-.085-.171v.171a14.516,14.516,0,0,0,2.393.171,9.009,9.009,0,0,0,6.495-2.307,7.441,7.441,0,0,0,2.393-5.9,9.052,9.052,0,0,0-2.051-5.726L83,27.335v.171l5.3-.342V25.2h-.171v.085Zm-19.912,28.8h-.171A4.753,4.753,0,0,0,69.844,58.1a10.652,10.652,0,0,0,5.811,1.282c3.247,0,5.726-.513,7.35-1.538a5.308,5.308,0,0,0,2.564-4.786,3.731,3.731,0,0,0-1.624-3.418A9.671,9.671,0,0,0,78.9,48.614H74.886a8.247,8.247,0,0,0-5.213,1.367,4.965,4.965,0,0,0-1.795,4.188h.342a4.523,4.523,0,0,1,1.624-3.846A7.991,7.991,0,0,1,74.8,49.042h4.017a9.379,9.379,0,0,1,4.786.94,3.385,3.385,0,0,1,1.453,3.077A4.983,4.983,0,0,1,82.748,57.5Q80.441,59.04,75.57,59.04a10.514,10.514,0,0,1-5.555-1.2,3.963,3.963,0,0,1-1.795-3.589h-.171Zm1.88-21.109h-.171a5.987,5.987,0,0,0,1.795,4.615,6.778,6.778,0,0,0,4.786,1.624A6.72,6.72,0,0,0,81.21,37.59a6.331,6.331,0,0,0,1.709-4.7,6.323,6.323,0,0,0-1.795-4.871,7.828,7.828,0,0,0-9.657.085,6.536,6.536,0,0,0-1.709,4.871H70.1a5.623,5.623,0,0,1,6.068-6.153,6.545,6.545,0,0,1,4.615,1.538,5.763,5.763,0,0,1,1.624,4.529,5.637,5.637,0,0,1-1.538,4.358,6.268,6.268,0,0,1-4.615,1.538,6.466,6.466,0,0,1-4.529-1.538A5.421,5.421,0,0,1,70.1,32.975Z" transform="translate(-17.594 -13.012)" fill="#1b1b1b"/>
  <path id="Path_206603" data-name="Path 206603" d="M97.3,17.036c0-1.453.513-2.136,1.453-2.136a1.245,1.245,0,0,1,1.111.6,2.831,2.831,0,0,1,.427,1.624,3.04,3.04,0,0,1-.427,1.624,1.27,1.27,0,0,1-1.111.513C97.813,19.258,97.3,18.575,97.3,17.036Zm2.564,31.535H97.642v-24.7h2.222Z" transform="translate(-22.022 -12.08)"/>
  <path id="Path_206604" data-name="Path 206604" d="M97.271,17.007h.171a2.569,2.569,0,0,1,.342-1.538c.171-.342.427-.427.855-.427a1.072,1.072,0,0,1,.94.513h0a2.445,2.445,0,0,1,.342,1.453,3.016,3.016,0,0,1-.342,1.453,1.072,1.072,0,0,1-.94.513.943.943,0,0,1-.855-.427,3.413,3.413,0,0,1-.342-1.538H97.1a2.805,2.805,0,0,0,.427,1.795,1.406,1.406,0,0,0,1.282.684,1.507,1.507,0,0,0,1.282-.684,3.632,3.632,0,0,0,0-3.418h0a1.507,1.507,0,0,0-1.282-.684,1.818,1.818,0,0,0-1.282.6,3.366,3.366,0,0,0-.427,1.709h.171Zm2.564,31.535v-.256H97.869V24.1h1.795V48.542h.171v0h.171V23.673H97.356v25.04h2.649v-.171Z" transform="translate(-21.992 -12.051)" fill="#1b1b1b"/>
  <path id="Path_206605" data-name="Path 206605" d="M127.177,50.5V34.218q0-3.788-1.538-5.486a6.284,6.284,0,0,0-4.871-1.742c-2.906,0-5.128.784-6.495,2.264s-2.051,4.006-2.051,7.4V50.5H110V25.335h1.88l.427,3.483h.171c1.624-2.613,4.444-3.919,8.546-3.919,5.555,0,8.375,3.048,8.375,9.144V50.416h-2.222Z" transform="translate(-23.661 -13.534)"/>
  <path id="Path_206606" data-name="Path 206606" d="M127.134,50.455h.171V34.176c0-2.525-.513-4.44-1.624-5.658a6.531,6.531,0,0,0-5.042-1.828q-4.487,0-6.666,2.35c-1.453,1.567-2.136,4.091-2.136,7.487V50.193h-1.795V25.558h1.538l.427,3.482h.427l.085-.087c1.538-2.525,4.273-3.83,8.375-3.83a7.993,7.993,0,0,1,6.153,2.263c1.367,1.48,2.051,3.743,2.051,6.7v16.1h-1.966v.261h0v.174h2.393V34c0-3.047-.684-5.4-2.137-7.051q-2.179-2.35-6.409-2.35c-4.1,0-7.093,1.306-8.717,4l.171.087v-.174h-.171v.174h.171l-.427-3.656H109.7V50.542h2.649V36.613c0-3.4.684-5.745,1.966-7.225s3.418-2.176,6.324-2.176c2.136,0,3.675.522,4.7,1.654,1.026,1.045,1.538,2.873,1.538,5.4V50.716h.171v-.261Z" transform="translate(-23.618 -13.49)" fill="#1b1b1b"/>
  <path id="Path_206607" data-name="Path 206607" d="M160.106,27.1V22.654l23.587-8.119a1.406,1.406,0,1,0-.94-2.649L158.14,20.346a1.386,1.386,0,0,0-.94,1.367v5.469a1.372,1.372,0,0,0,1.453,1.367A1.44,1.44,0,0,0,160.106,27.1Z" transform="translate(-29.82 -11.629)"/>
  <path id="Path_206608" data-name="Path 206608" d="M160.077,27.068h.171V22.8l23.5-8.033a1.642,1.642,0,0,0,1.111-1.538,1.084,1.084,0,0,0-.085-.513,1.642,1.642,0,0,0-1.538-1.111,1.084,1.084,0,0,0-.513.085l-24.612,8.461A1.642,1.642,0,0,0,157,21.684h0v5.469a1.681,1.681,0,0,0,1.624,1.624h0a1.681,1.681,0,0,0,1.624-1.624h0l-.171-.085h-.171a1.168,1.168,0,0,1-1.2,1.2h0a1.168,1.168,0,0,1-1.2-1.2V21.6h0a1.217,1.217,0,0,1,.769-1.111l24.612-8.461a.771.771,0,0,1,.427-.085,1.217,1.217,0,0,1,1.111.769.77.77,0,0,1,.085.427,1.217,1.217,0,0,1-.769,1.111l-23.758,8.2v4.615Z" transform="translate(-29.791 -11.6)" fill="#1b1b1b"/>
  <path id="Path_206609" data-name="Path 206609" d="M175.432,18.44,195.6,24.316l.085,21.431-11.281,9.938L160.22,46.266V42.723a1.379,1.379,0,0,0-1.453-1.383,1.333,1.333,0,0,0-1.367,1.469V47.3a1.3,1.3,0,0,0,.94,1.3l25.894,10.024a1.48,1.48,0,0,0,1.453-.259l12.392-10.888a1.4,1.4,0,0,0,.513-1.123l-.085-23.159a1.477,1.477,0,0,0-1.026-1.383l-21.109-6.222a1.29,1.29,0,0,0-1.709.951C174.492,17.316,174.663,18.267,175.432,18.44Z" transform="translate(-29.849 -12.169)"/>
  <path id="Path_206610" data-name="Path 206610" d="M175.388,18.438l-.085.173,20,5.876.085,21.171-11.11,9.764L160.348,46.09V42.72a1.69,1.69,0,0,0-1.624-1.642h0v0A1.69,1.69,0,0,0,157.1,42.72h0v4.493a1.707,1.707,0,0,0,1.026,1.555L184.02,58.792a1.439,1.439,0,0,0,.6.086,1.408,1.408,0,0,0,1.026-.432l12.392-10.715a1.823,1.823,0,0,0,.6-1.21h0l-.085-23.158a1.657,1.657,0,0,0-1.2-1.555l-21.109-6.222a.92.92,0,0,0-.427-.086,1.548,1.548,0,0,0-1.538,1.21.949.949,0,0,0-.085.432,1.56,1.56,0,0,0,1.2,1.555v-.259l.085-.173a1.191,1.191,0,0,1-.855-1.123.524.524,0,0,1,.085-.346,1.182,1.182,0,0,1,1.111-.864.509.509,0,0,1,.342.086l21.109,6.222a1.191,1.191,0,0,1,.855,1.123l.085,23.158h0a1.4,1.4,0,0,1-.427.951l-12.392,10.8a1.368,1.368,0,0,1-.769.259.763.763,0,0,1-.427-.086L158.3,48.423a1.23,1.23,0,0,1-.769-1.123V42.806h0a1.175,1.175,0,0,1,1.2-1.21h0a1.175,1.175,0,0,1,1.2,1.21v3.716l24.441,9.505L195.813,46l-.085-21.689-20.254-5.962Z" transform="translate(-29.805 -12.167)" fill="#1b1b1b"/>
  <path id="Path_206611" data-name="Path 206611" d="M175.225,32.715l4.529,4.529-4.529,4.871A1.391,1.391,0,0,0,177.276,44l5.469-5.9a1.341,1.341,0,0,0,0-1.88l-5.469-5.384a1.447,1.447,0,0,0-1.966,0A1.162,1.162,0,0,0,175.225,32.715Z" transform="translate(-32.377 -14.113)" fill="#e20c3a"/>
  <path id="Path_206612" data-name="Path 206612" d="M175.213,32.693h0l4.358,4.529-4.444,4.786a1.577,1.577,0,0,0-.427,1.026,1.5,1.5,0,0,0,.513,1.111,1.577,1.577,0,0,0,1.026.427,1.5,1.5,0,0,0,1.111-.513l5.469-5.9a1.444,1.444,0,0,0,0-2.051l-5.469-5.384a1.453,1.453,0,0,0-2.478,1.026.653.653,0,0,0,.342.94h0a2.228,2.228,0,0,1-.256-.94.991.991,0,0,1,.342-.855,1.224,1.224,0,0,1,.855-.342.991.991,0,0,1,.855.342l5.469,5.384a1.225,1.225,0,0,1,.342.855,1.1,1.1,0,0,1-.342.855l-5.469,5.9a1.373,1.373,0,0,1-.94.427,1.1,1.1,0,0,1-.855-.342,1.372,1.372,0,0,1-.427-.94,1.1,1.1,0,0,1,.342-.855l4.615-4.957-4.529-4.529Z" transform="translate(-32.364 -14.092)" fill="#e20c3a"/>
  <path id="Path_206613" data-name="Path 206613" d="M178.38,37H158.467a1.367,1.367,0,0,0,0,2.735H178.38a1.367,1.367,0,1,0,0-2.735" transform="translate(-29.805 -15.063)" fill="#e20c3a"/>
  <path id="Path_206614" data-name="Path 206614" d="M178.365,36.8H158.453a1.453,1.453,0,0,0,0,2.906h19.912a1.453,1.453,0,0,0,0-2.906v.171a1.282,1.282,0,1,1,0,2.564H158.453a1.282,1.282,0,0,1,0-2.564h19.912V36.8Z" transform="translate(-29.791 -15.035)" fill="#e20c3a"/>
  <path id="Path_206615" data-name="Path 206615" d="M10.3,48.658V15.5h2.307V46.436h15.81v2.222Z" transform="translate(-10.129 -12.167)"/>
  <path id="Path_206616" data-name="Path 206616" d="M10.271,48.629h.256v-32.9h1.88V46.664H28.132v1.709H10.271v.256h0V48.8H28.559V46.236H12.835V15.3H10.1V48.8h.171Z" transform="translate(-10.1 -12.138)" fill="#1b1b1b"/>
  <path id="Path_206617" data-name="Path 206617" d="M57.607,37.885c0,4.092-.94,7.313-2.906,9.577a10.111,10.111,0,0,1-8.033,3.483,10.483,10.483,0,0,1-5.726-1.567,10.267,10.267,0,0,1-3.76-4.527A17.284,17.284,0,0,1,35.9,37.972c0-4.092.94-7.313,2.906-9.577A10.049,10.049,0,0,1,46.839,25a9.566,9.566,0,0,1,7.948,3.483C56.667,30.659,57.607,33.88,57.607,37.885Zm-19.4,0a13.336,13.336,0,0,0,2.222,8.1,7.488,7.488,0,0,0,6.324,2.873,7.6,7.6,0,0,0,6.324-2.873c1.453-1.915,2.222-4.614,2.222-8.1s-.769-6.181-2.222-8.1a7.6,7.6,0,0,0-6.324-2.873,7.6,7.6,0,0,0-6.324,2.873C38.891,31.7,38.207,34.4,38.207,37.885Z" transform="translate(-13.851 -13.548)"/>
  <path id="Path_206618" data-name="Path 206618" d="M57.549,37.841h-.171c0,4.09-.94,7.223-2.906,9.486a9.7,9.7,0,0,1-7.862,3.394,9.717,9.717,0,0,1-5.555-1.566,9.856,9.856,0,0,1-3.675-4.438A16.546,16.546,0,0,1,36.1,37.928c0-4.09.94-7.223,2.906-9.4,1.88-2.263,4.529-3.307,7.862-3.394a9.526,9.526,0,0,1,7.777,3.394q2.82,3.394,2.82,9.4h.256c0-4.09-.94-7.31-2.906-9.66A10.086,10.086,0,0,0,46.7,24.7a10.314,10.314,0,0,0-8.2,3.481c-1.966,2.35-2.991,5.57-2.991,9.747a16.3,16.3,0,0,0,1.367,6.962,10.121,10.121,0,0,0,9.657,6.353c3.5,0,6.239-1.131,8.2-3.568,1.966-2.35,2.991-5.57,2.991-9.747h-.171Zm-19.4,0h-.171c0,3.481.769,6.179,2.307,8.18a7.65,7.65,0,0,0,6.495,2.959,7.756,7.756,0,0,0,6.495-2.959c1.538-2,2.307-4.7,2.307-8.18s-.769-6.266-2.307-8.18A7.756,7.756,0,0,0,46.781,26.7a7.756,7.756,0,0,0-6.495,2.959c-1.538,1.915-2.222,4.7-2.222,8.18h.256c0-3.481.769-6.092,2.136-7.919a7.33,7.33,0,0,1,6.153-2.785,7.441,7.441,0,0,1,6.153,2.785c1.453,1.828,2.222,4.525,2.222,7.919s-.769,6.092-2.222,7.919a7.208,7.208,0,0,1-6.153,2.785,7.441,7.441,0,0,1-6.153-2.785,12.771,12.771,0,0,1-2.222-7.919h-.085Z" transform="translate(-13.793 -13.505)" fill="#1b1b1b"/>
  <path id="Path_206619" data-name="Path 206619" d="M87.99,25.327v1.538l-5.128.342a8.772,8.772,0,0,1,2.051,5.555,7.243,7.243,0,0,1-2.393,5.726A8.907,8.907,0,0,1,76.2,40.71a14.517,14.517,0,0,1-2.393-.171,6.64,6.64,0,0,0-2.051,1.624,3.355,3.355,0,0,0-.684,2.137,1.81,1.81,0,0,0,.855,1.709,6.471,6.471,0,0,0,2.991.513h4.273a9.946,9.946,0,0,1,6.153,1.624,5.564,5.564,0,0,1,2.136,4.786,6.693,6.693,0,0,1-3.162,5.982c-2.137,1.453-5.128,2.136-8.973,2.136a12.381,12.381,0,0,1-7.179-1.795A5.689,5.689,0,0,1,65.6,54.3a5.888,5.888,0,0,1,1.538-4.188A8.287,8.287,0,0,1,71.411,47.8a4.2,4.2,0,0,1-1.795-1.367,3.424,3.424,0,0,1-.684-1.966c0-1.624,1.026-3.077,3.162-4.358a7.078,7.078,0,0,1-3.333-2.735,9.162,9.162,0,0,1-1.111-4.358,7.724,7.724,0,0,1,2.307-5.9A8.907,8.907,0,0,1,76.282,24.9a10.716,10.716,0,0,1,3.76.513H87.99Zm-19.912,28.8c0,3.418,2.478,5.042,7.52,5.042,6.495,0,9.657-2.051,9.657-6.153a3.654,3.654,0,0,0-1.538-3.247,9.123,9.123,0,0,0-4.957-1.026H74.744Q68.078,48.871,68.078,54.127Zm1.88-21.109a5.855,5.855,0,0,0,1.709,4.444A6.841,6.841,0,0,0,76.282,39a6.627,6.627,0,0,0,4.7-1.538,5.885,5.885,0,0,0,1.624-4.529,6.07,6.07,0,0,0-1.709-4.7,6.771,6.771,0,0,0-4.7-1.538A6.259,6.259,0,0,0,71.582,28.4,6.087,6.087,0,0,0,69.958,33.019Z" transform="translate(-17.623 -13.056)"/>
  <path id="Path_206620" data-name="Path 206620" d="M87.961,25.284H87.79v1.367l-5.3.342.256.342A8.289,8.289,0,0,1,84.714,32.8a7.408,7.408,0,0,1-2.307,5.64,8.649,8.649,0,0,1-6.239,2.136,12.544,12.544,0,0,1-2.307-.171H73.69a6.284,6.284,0,0,0-2.137,1.709,3.454,3.454,0,0,0-.769,2.136,1.963,1.963,0,0,0,1.026,1.88,5.943,5.943,0,0,0,3.077.6h4.273a9.8,9.8,0,0,1,5.982,1.538,5.4,5.4,0,0,1,2.051,4.615A6.519,6.519,0,0,1,84.116,58.7c-2.051,1.367-5.042,2.051-8.888,2.051a12.787,12.787,0,0,1-7.093-1.709,5.621,5.621,0,0,1-2.478-4.786,5.822,5.822,0,0,1,1.538-4.1,7.924,7.924,0,0,1,4.188-2.222l.684-.171-.6-.256a5.284,5.284,0,0,1-1.709-1.282,2.913,2.913,0,0,1-.6-1.88c0-1.538.94-2.906,3.077-4.188l.342-.256-.427-.171A6.785,6.785,0,0,1,68.9,36.992a7.739,7.739,0,0,1-1.2-4.188,7.659,7.659,0,0,1,2.307-5.811,8.572,8.572,0,0,1,6.153-2.136,13.054,13.054,0,0,1,3.675.427h8.119v-.171H80.1v.171l.085-.171a11.6,11.6,0,0,0-3.846-.513,9.009,9.009,0,0,0-6.495,2.307,7.984,7.984,0,0,0-2.393,6.068,8.642,8.642,0,0,0,1.2,4.444,7.379,7.379,0,0,0,3.418,2.82l.085-.171-.085-.171c-2.137,1.282-3.248,2.82-3.248,4.529a3.74,3.74,0,0,0,.684,2.136,4.64,4.64,0,0,0,1.88,1.453l.085-.171-.085-.171a8.071,8.071,0,0,0-4.358,2.393A6.138,6.138,0,0,0,65.4,54.425a5.763,5.763,0,0,0,2.649,5.128c1.709,1.2,4.188,1.795,7.35,1.795,3.931,0,7.008-.684,9.144-2.136a7.05,7.05,0,0,0,3.247-6.153A5.952,5.952,0,0,0,85.569,48.1a10.222,10.222,0,0,0-6.239-1.624H75.057a5.843,5.843,0,0,1-2.906-.513,1.634,1.634,0,0,1-.769-1.538,3.176,3.176,0,0,1,.684-1.88,6.432,6.432,0,0,1,1.966-1.624l-.085-.171v.171a14.516,14.516,0,0,0,2.393.171,9.009,9.009,0,0,0,6.495-2.307,7.441,7.441,0,0,0,2.393-5.9,9.052,9.052,0,0,0-2.051-5.726L83,27.335v.171l5.3-.342V25.2h-.171v.085Zm-19.912,28.8h-.171A4.753,4.753,0,0,0,69.844,58.1a10.652,10.652,0,0,0,5.811,1.282c3.247,0,5.726-.513,7.35-1.538a5.308,5.308,0,0,0,2.564-4.786,3.731,3.731,0,0,0-1.624-3.418A9.671,9.671,0,0,0,78.9,48.614H74.886a8.247,8.247,0,0,0-5.213,1.367,4.965,4.965,0,0,0-1.795,4.188h.342a4.523,4.523,0,0,1,1.624-3.846A7.991,7.991,0,0,1,74.8,49.042h4.017a9.379,9.379,0,0,1,4.786.94,3.385,3.385,0,0,1,1.453,3.077A4.983,4.983,0,0,1,82.748,57.5Q80.441,59.04,75.57,59.04a10.514,10.514,0,0,1-5.555-1.2,3.963,3.963,0,0,1-1.795-3.589h-.171Zm1.88-21.109h-.171a5.987,5.987,0,0,0,1.795,4.615,6.778,6.778,0,0,0,4.786,1.624A6.72,6.72,0,0,0,81.21,37.59a6.331,6.331,0,0,0,1.709-4.7,6.323,6.323,0,0,0-1.795-4.871,7.828,7.828,0,0,0-9.657.085,6.536,6.536,0,0,0-1.709,4.871H70.1a5.623,5.623,0,0,1,6.068-6.153,6.545,6.545,0,0,1,4.615,1.538,5.763,5.763,0,0,1,1.624,4.529,5.637,5.637,0,0,1-1.538,4.358,6.268,6.268,0,0,1-4.615,1.538,6.466,6.466,0,0,1-4.529-1.538A5.421,5.421,0,0,1,70.1,32.975Z" transform="translate(-17.594 -13.012)" fill="#1b1b1b"/>
  <path id="Path_206621" data-name="Path 206621" d="M97.3,17.036c0-1.453.513-2.136,1.453-2.136a1.245,1.245,0,0,1,1.111.6,2.831,2.831,0,0,1,.427,1.624,3.04,3.04,0,0,1-.427,1.624,1.27,1.27,0,0,1-1.111.513C97.813,19.258,97.3,18.575,97.3,17.036Zm2.564,31.535H97.642v-24.7h2.222Z" transform="translate(-22.022 -12.08)"/>
  <path id="Path_206622" data-name="Path 206622" d="M97.271,17.007h.171a2.569,2.569,0,0,1,.342-1.538c.171-.342.427-.427.855-.427a1.072,1.072,0,0,1,.94.513h0a2.445,2.445,0,0,1,.342,1.453,3.016,3.016,0,0,1-.342,1.453,1.072,1.072,0,0,1-.94.513.943.943,0,0,1-.855-.427,3.413,3.413,0,0,1-.342-1.538H97.1a2.805,2.805,0,0,0,.427,1.795,1.406,1.406,0,0,0,1.282.684,1.507,1.507,0,0,0,1.282-.684,3.632,3.632,0,0,0,0-3.418h0a1.507,1.507,0,0,0-1.282-.684,1.818,1.818,0,0,0-1.282.6,3.366,3.366,0,0,0-.427,1.709h.171Zm2.564,31.535v-.256H97.869V24.1h1.795V48.542h.171v0h.171V23.673H97.356v25.04h2.649v-.171Z" transform="translate(-21.992 -12.051)" fill="#1b1b1b"/>
  <path id="Path_206623" data-name="Path 206623" d="M127.177,50.5V34.218q0-3.788-1.538-5.486a6.284,6.284,0,0,0-4.871-1.742c-2.906,0-5.128.784-6.495,2.264s-2.051,4.006-2.051,7.4V50.5H110V25.335h1.88l.427,3.483h.171c1.624-2.613,4.444-3.919,8.546-3.919,5.555,0,8.375,3.048,8.375,9.144V50.416h-2.222Z" transform="translate(-23.661 -13.534)"/>
  <path id="Path_206624" data-name="Path 206624" d="M127.134,50.455h.171V34.176c0-2.525-.513-4.44-1.624-5.658a6.531,6.531,0,0,0-5.042-1.828q-4.487,0-6.666,2.35c-1.453,1.567-2.136,4.091-2.136,7.487V50.193h-1.795V25.558h1.538l.427,3.482h.427l.085-.087c1.538-2.525,4.273-3.83,8.375-3.83a7.993,7.993,0,0,1,6.153,2.263c1.367,1.48,2.051,3.743,2.051,6.7v16.1h-1.966v.261h0v.174h2.393V34c0-3.047-.684-5.4-2.137-7.051q-2.179-2.35-6.409-2.35c-4.1,0-7.093,1.306-8.717,4l.171.087v-.174h-.171v.174h.171l-.427-3.656H109.7V50.542h2.649V36.613c0-3.4.684-5.745,1.966-7.225s3.418-2.176,6.324-2.176c2.136,0,3.675.522,4.7,1.654,1.026,1.045,1.538,2.873,1.538,5.4V50.716h.171v-.261Z" transform="translate(-23.618 -13.49)" fill="#1b1b1b"/>
  <path id="Path_206625" data-name="Path 206625" d="M10.9,48.658V15.5h2.307V46.436H28.932v2.222Z" transform="translate(-10.216 -12.167)"/>
  <path id="Path_206626" data-name="Path 206626" d="M58.207,37.885c0,4.092-.94,7.313-2.906,9.577a10.112,10.112,0,0,1-8.033,3.483,10.484,10.484,0,0,1-5.726-1.567,10.267,10.267,0,0,1-3.76-4.527A17.284,17.284,0,0,1,36.5,37.972c0-4.092.94-7.313,2.906-9.577A10.049,10.049,0,0,1,47.439,25a9.566,9.566,0,0,1,7.948,3.483C57.267,30.659,58.207,33.88,58.207,37.885Zm-19.485,0a13.336,13.336,0,0,0,2.222,8.1,7.488,7.488,0,0,0,6.324,2.873,7.6,7.6,0,0,0,6.324-2.873c1.453-1.915,2.222-4.614,2.222-8.1s-.769-6.181-2.222-8.1a7.6,7.6,0,0,0-6.324-2.873,7.6,7.6,0,0,0-6.324,2.873C39.491,31.7,38.722,34.4,38.722,37.885Z" transform="translate(-13.939 -13.548)"/>
  <path id="Path_206627" data-name="Path 206627" d="M58.149,37.841h-.171c0,4.09-.94,7.223-2.906,9.486a9.7,9.7,0,0,1-7.862,3.394,9.717,9.717,0,0,1-5.555-1.566,9.856,9.856,0,0,1-3.675-4.438A16.546,16.546,0,0,1,36.7,37.928c0-4.09.94-7.223,2.906-9.4,1.88-2.263,4.529-3.307,7.862-3.394a9.526,9.526,0,0,1,7.777,3.394q2.82,3.394,2.82,9.4h.256c0-4.09-.94-7.31-2.906-9.66A10.086,10.086,0,0,0,47.3,24.7a10.314,10.314,0,0,0-8.2,3.481c-1.966,2.35-2.991,5.57-2.991,9.747a16.3,16.3,0,0,0,1.367,6.962,10.121,10.121,0,0,0,9.657,6.353c3.5,0,6.239-1.131,8.2-3.568,1.966-2.35,2.991-5.57,2.991-9.747h-.171Zm-19.485,0h-.171c0,3.481.769,6.179,2.307,8.18A7.65,7.65,0,0,0,47.3,48.98a7.757,7.757,0,0,0,6.495-2.959c1.538-2,2.307-4.7,2.307-8.18s-.769-6.266-2.307-8.18A7.756,7.756,0,0,0,47.3,26.7,7.756,7.756,0,0,0,40.8,29.66c-1.538,1.915-2.222,4.7-2.222,8.18h.256c0-3.481.769-6.092,2.136-7.919a7.33,7.33,0,0,1,6.153-2.785,7.441,7.441,0,0,1,6.153,2.785c1.453,1.828,2.222,4.525,2.222,7.919s-.769,6.092-2.222,7.919a7.208,7.208,0,0,1-6.153,2.785,7.441,7.441,0,0,1-6.153-2.785,12.771,12.771,0,0,1-2.222-7.919h-.085Z" transform="translate(-13.88 -13.505)" fill="#1b1b1b"/>
  <path id="Path_206628" data-name="Path 206628" d="M88.59,25.313v1.538l-5.128.342a8.772,8.772,0,0,1,2.051,5.555,7.243,7.243,0,0,1-2.393,5.726A8.907,8.907,0,0,1,76.8,40.7a14.517,14.517,0,0,1-2.393-.171,6.64,6.64,0,0,0-2.051,1.624,2.984,2.984,0,0,0-.684,2.051,1.81,1.81,0,0,0,.855,1.709,6.471,6.471,0,0,0,2.991.513h4.273a9.946,9.946,0,0,1,6.153,1.624,5.564,5.564,0,0,1,2.136,4.786,6.693,6.693,0,0,1-3.162,5.982c-2.136,1.453-5.128,2.136-8.973,2.136a12.381,12.381,0,0,1-7.179-1.795A5.689,5.689,0,0,1,66.2,54.2a5.888,5.888,0,0,1,1.538-4.188A8.287,8.287,0,0,1,72.011,47.7a4.2,4.2,0,0,1-1.795-1.367,3.424,3.424,0,0,1-.684-1.966c0-1.624,1.025-3.077,3.162-4.358a7.077,7.077,0,0,1-3.333-2.735,8.335,8.335,0,0,1-1.2-4.358,7.724,7.724,0,0,1,2.307-5.9A8.907,8.907,0,0,1,76.8,24.8a10.715,10.715,0,0,1,3.76.513Zm-20,28.8c0,3.418,2.478,5.042,7.52,5.042,6.495,0,9.657-2.051,9.657-6.153a3.654,3.654,0,0,0-1.538-3.247,9.123,9.123,0,0,0-4.957-1.026H75.43C70.9,48.814,68.593,50.609,68.593,54.113ZM70.473,33a5.855,5.855,0,0,0,1.709,4.444A6.841,6.841,0,0,0,76.8,38.986a6.627,6.627,0,0,0,4.7-1.538,5.885,5.885,0,0,0,1.624-4.529,6.07,6.07,0,0,0-1.709-4.7A6.268,6.268,0,0,0,76.8,26.68a6.259,6.259,0,0,0-4.615,1.709A6.125,6.125,0,0,0,70.473,33Z" transform="translate(-17.704 -13.042)"/>
  <path id="Path_206629" data-name="Path 206629" d="M88.561,25.284H88.39v1.367l-5.3.342.256.342A8.289,8.289,0,0,1,85.314,32.8a7.408,7.408,0,0,1-2.307,5.64,8.649,8.649,0,0,1-6.239,2.136,12.544,12.544,0,0,1-2.307-.171H74.29a6.284,6.284,0,0,0-2.136,1.709,3.454,3.454,0,0,0-.769,2.136,1.964,1.964,0,0,0,1.025,1.88,5.943,5.943,0,0,0,3.077.6h4.273a9.8,9.8,0,0,1,5.982,1.538,5.4,5.4,0,0,1,2.051,4.615A6.519,6.519,0,0,1,84.716,58.7c-2.051,1.367-5.042,2.051-8.888,2.051a12.787,12.787,0,0,1-7.093-1.709,5.621,5.621,0,0,1-2.478-4.786,5.822,5.822,0,0,1,1.538-4.1,7.924,7.924,0,0,1,4.188-2.222l.684-.171-.6-.256a5.284,5.284,0,0,1-1.709-1.282,2.912,2.912,0,0,1-.6-1.88c0-1.538.94-2.906,3.077-4.188l.342-.256h-.342a6.785,6.785,0,0,1-3.247-2.735,7.739,7.739,0,0,1-1.2-4.188A7.659,7.659,0,0,1,70.7,27.164a8.572,8.572,0,0,1,6.153-2.136,13.055,13.055,0,0,1,3.675.427h7.948v-.171h.085v-.171H80.7v.171l.085-.171a11.6,11.6,0,0,0-3.846-.513,9.009,9.009,0,0,0-6.495,2.307,7.984,7.984,0,0,0-2.393,6.068,8.642,8.642,0,0,0,1.2,4.444,7.379,7.379,0,0,0,3.418,2.82l.085-.171-.085-.171c-2.137,1.282-3.247,2.82-3.247,4.529a3.74,3.74,0,0,0,.684,2.136,4.64,4.64,0,0,0,1.88,1.453l.085-.171-.085-.256a8.071,8.071,0,0,0-4.358,2.393A6.138,6.138,0,0,0,66,54.34a5.763,5.763,0,0,0,2.649,5.128c1.709,1.2,4.188,1.795,7.35,1.795,3.931,0,7.008-.684,9.144-2.137a7.05,7.05,0,0,0,3.247-6.153,5.952,5.952,0,0,0-2.222-4.957,10.221,10.221,0,0,0-6.239-1.624H75.657a5.843,5.843,0,0,1-2.906-.513,1.634,1.634,0,0,1-.769-1.538,3.176,3.176,0,0,1,.684-1.88,6.432,6.432,0,0,1,1.966-1.624l-.085-.171v.171a14.519,14.519,0,0,0,2.393.171A9.009,9.009,0,0,0,83.434,38.7a7.441,7.441,0,0,0,2.393-5.9,9.052,9.052,0,0,0-2.051-5.726l-.171.171v.171l5.3-.342V25.113h-.171v.171Zm-20,28.8h-.171A4.752,4.752,0,0,0,70.358,58.1a10.652,10.652,0,0,0,5.811,1.282c3.247,0,5.726-.513,7.35-1.538a5.308,5.308,0,0,0,2.564-4.786,3.731,3.731,0,0,0-1.624-3.418,9.671,9.671,0,0,0-5.042-1.026H75.4a8.247,8.247,0,0,0-5.213,1.367,4.965,4.965,0,0,0-1.795,4.188h.342a4.523,4.523,0,0,1,1.624-3.846,7.991,7.991,0,0,1,4.957-1.282h4.017a9.379,9.379,0,0,1,4.786.94,3.385,3.385,0,0,1,1.453,3.077A4.983,4.983,0,0,1,83.263,57.5q-2.307,1.538-7.179,1.538a10.514,10.514,0,0,1-5.555-1.2,3.963,3.963,0,0,1-1.795-3.589h-.171Zm1.88-21.109h-.171a5.987,5.987,0,0,0,1.795,4.615,6.778,6.778,0,0,0,4.786,1.624,6.72,6.72,0,0,0,4.871-1.624,6.331,6.331,0,0,0,1.709-4.7,6.323,6.323,0,0,0-1.795-4.871,7.828,7.828,0,0,0-9.657.085,6.536,6.536,0,0,0-1.709,4.871h.342a5.623,5.623,0,0,1,6.068-6.153A6.545,6.545,0,0,1,81.3,28.36a5.763,5.763,0,0,1,1.624,4.529,5.637,5.637,0,0,1-1.538,4.358,6.268,6.268,0,0,1-4.615,1.538,6.466,6.466,0,0,1-4.529-1.538,5.421,5.421,0,0,1-1.624-4.273Z" transform="translate(-17.675 -13.012)" fill="#1b1b1b"/>
  <path id="Path_206630" data-name="Path 206630" d="M97.9,17.036c0-1.453.513-2.136,1.453-2.136a1.245,1.245,0,0,1,1.111.6,2.831,2.831,0,0,1,.427,1.624,3.04,3.04,0,0,1-.427,1.624,1.159,1.159,0,0,1-1.111.6C98.413,19.258,97.9,18.575,97.9,17.036Zm2.564,31.535H98.242v-24.7h2.222Z" transform="translate(-22.104 -12.08)"/>
  <path id="Path_206631" data-name="Path 206631" d="M97.871,17.007h.171a2.569,2.569,0,0,1,.342-1.538c.171-.342.427-.427.855-.427a1.072,1.072,0,0,1,.94.513,2.445,2.445,0,0,1,.342,1.453,3.017,3.017,0,0,1-.342,1.453,1.072,1.072,0,0,1-.94.513.943.943,0,0,1-.855-.427,3.413,3.413,0,0,1-.342-1.538H97.7a2.8,2.8,0,0,0,.427,1.795,1.406,1.406,0,0,0,1.282.684,1.507,1.507,0,0,0,1.282-.684,3.632,3.632,0,0,0,0-3.418,1.507,1.507,0,0,0-1.282-.684,1.818,1.818,0,0,0-1.282.6,3.366,3.366,0,0,0-.427,1.709h.171Zm2.564,31.535v-.256H98.384V24.1h1.795V48.542h.256v0h.171V23.673H97.956v25.04h2.649v-.171Z" transform="translate(-22.074 -12.051)" fill="#1b1b1b"/>
  <path id="Path_206632" data-name="Path 206632" d="M127.677,50.5V34.218q0-3.788-1.538-5.486a6.284,6.284,0,0,0-4.871-1.742c-2.906,0-5.128.784-6.495,2.264s-2.051,4.006-2.051,7.4V50.5H110.5V25.335h1.88l.427,3.483h.171c1.624-2.613,4.444-3.919,8.546-3.919,5.555,0,8.375,3.048,8.375,9.144V50.416h-2.222Z" transform="translate(-23.729 -13.534)"/>
  <path id="Path_206633" data-name="Path 206633" d="M127.634,50.455h.171V34.176c0-2.525-.513-4.44-1.624-5.658a6.531,6.531,0,0,0-5.042-1.828q-4.487,0-6.666,2.35c-1.453,1.567-2.136,4.091-2.136,7.487V50.193h-1.795V25.558h1.538l.427,3.482h.427l.085-.087c1.538-2.525,4.273-3.83,8.375-3.83a7.993,7.993,0,0,1,6.153,2.263c1.367,1.48,2.051,3.743,2.051,6.7v16.1h-1.966v.261h0v.174h2.393V34c0-3.047-.684-5.4-2.136-7.051q-2.179-2.35-6.409-2.35c-4.1,0-7.093,1.306-8.717,4l.171.087v-.174h-.171v.174h.171l-.427-3.656H110.2V50.542h2.649V36.613c0-3.4.684-5.745,1.966-7.225s3.418-2.176,6.324-2.176c2.137,0,3.675.522,4.7,1.654,1.026,1.045,1.538,2.873,1.538,5.4V50.716h.171v-.261Z" transform="translate(-23.686 -13.49)" fill="#1b1b1b"/>
</svg>
