<svg id="icon-password" xmlns="http://www.w3.org/2000/svg" width="24" height="24" viewBox="0 0 24 24">
  <rect id="Rectangle_6739" data-name="Rectangle 6739" width="24" height="24" fill="none"/>
  <g id="lock-padlock-symbol-for-protect_icon-icons.com_56926" transform="translate(5 3)">
    <path id="Path_206599" data-name="Path 206599" d="M72.318,7.875V4.5a4.67,4.67,0,0,0-9.333,0V7.875a2.293,2.293,0,0,0-2.333,2.25V15.75A2.293,2.293,0,0,0,62.984,18h9.333a2.293,2.293,0,0,0,2.333-2.25V10.125A2.293,2.293,0,0,0,72.318,7.875Zm-2.333,0H65.318V4.5a2.335,2.335,0,0,1,4.666,0V7.875Z" transform="translate(-60.651)" fill="#1a73de"/>
  </g>
</svg>
