<svg xmlns="http://www.w3.org/2000/svg" width="100" height="24" viewBox="0 0 100 24">
  <g id="logo-fb" transform="translate(-854 -843)">
    <rect id="Rectangle_6789" data-name="Rectangle 6789" width="100" height="24" transform="translate(854 843)" fill="none"/>
    <path id="Facebook-Logo.wine" d="M6.219,18.707H2.52V9.486H0v-3H2.52V4.347C2.52,1.816,3.634,0,7.323,0,8.1,0,9.329.157,9.329.157V2.945H8.042c-1.311,0-1.823.4-1.823,1.5V6.484h3.06l-.273,3H6.219ZM14.707,6.244c-.054,0-.109,0-.164,0-3.43,0-5,2.58-5,6.243,0,4.614,2.036,6.46,5.026,6.46a3.614,3.614,0,0,0,3.518-2.064v1.823h3.518V6.485H18.088v1.88A3.606,3.606,0,0,0,14.707,6.244ZM15.6,9.132c1.441,0,2.305,1,2.305,2.714l0,1.746a2.339,2.339,0,0,1-2.309,2.5c-2.451,0-2.386-2.647-2.386-3.528,0-2.965,1.306-3.431,2.386-3.431ZM23.027,12.6c0-1.485-.071-6.346,6.261-6.346a6.271,6.271,0,0,1,3.6.808l-.853,2.646A5.568,5.568,0,0,0,29.6,9.122a2.638,2.638,0,0,0-2.9,2.83l0,1.294a2.7,2.7,0,0,0,2.9,2.891,6.064,6.064,0,0,0,2.418-.589l.851,2.591s-.97.813-3.564.813c-6.029,0-6.279-4.361-6.279-6.355Zm30.494-6.35c3.43,0,5.024,2.58,5.024,6.243,0,4.614-2.036,6.46-5.026,6.46a3.82,3.82,0,0,1-3.659-2.064v1.823H46.385V.372L50.074.05V8.2c.532-1.426,2.282-1.952,3.447-1.952ZM52.487,9.132c-1.441,0-2.412,1-2.412,2.714l0,1.746a2.336,2.336,0,0,0,2.416,2.5c2.451,0,2.386-2.647,2.386-3.528,0-2.965-1.306-3.431-2.386-3.431Zm-13.2-2.875c-3.89,0-5.944,2.121-5.944,5.891v.7C33.347,17.74,36.231,19,39.67,19a9.894,9.894,0,0,0,4.855-.935l-.69-2.49a10.762,10.762,0,0,1-3.723.757c-2.014,0-2.881-.513-3.1-2.449H44.82v-2c0-4.089-2.305-5.629-5.529-5.629Zm.094,2.493c1.347,0,2.219.826,2.171,2.741h-4.54c.079-2.016,1.02-2.741,2.369-2.741ZM65.9,6.24c-4,0-6.1,2.251-6.1,6.286,0,5.536,3.626,6.427,6.105,6.427,3.63,0,6.045-1.954,6.045-6.377,0-4.6-2.715-6.336-6.051-6.336Zm-.05,2.9c1.757,0,2.453,1.315,2.453,2.811V13.24c0,1.813-.974,2.862-2.46,2.862-1.389,0-2.366-.981-2.366-2.862V11.953c0-2.006,1.162-2.811,2.372-2.811ZM79.3,6.24c-4,0-6.1,2.251-6.1,6.286,0,5.536,3.626,6.427,6.105,6.427,3.63,0,6.045-1.954,6.045-6.377,0-4.6-2.715-6.336-6.051-6.336Zm-.05,2.9c1.757,0,2.453,1.315,2.453,2.811V13.24c0,1.813-.974,2.862-2.459,2.862-1.389,0-2.366-.981-2.366-2.862V11.953c0-2.006,1.162-2.811,2.372-2.811Zm7.5,9.565V.372l3.7-.322V12.34l3.67-5.856h3.907l-3.829,6.065,3.976,6.158H94.251l-3.806-5.98v5.98Z" transform="translate(855 846)" fill="#1877f2"/>
  </g>
</svg>
